<svg xmlns="http://www.w3.org/2000/svg" viewBox="0 0 960 560" width="960" height="560"
     font-family="'Bricolage Grotesque','Inter',sans-serif">
  <!-- ===================================================================== -->
  <!-- TrialCat "Race to Approval" — BOARD MODE sample board (the visual target) -->
  <!-- Sticker-Comic system: hard #1b1b1b ink, SOLID offset shadows (no blur),  -->
  <!-- board-cyan #2bb8d8 field, color-by-MEANING. 24-square boustrophedon snake -->
  <!-- climbing $100k (bottom-right) -> $9B EXIT (top-left). Faithful to the 2018 -->
  <!-- painting; every tile center is computable (see board-spec.json).          -->
  <!-- ===================================================================== -->
  <defs>
    <!-- the cyan play field: 32px white grid ghost, lifted straight from .board -->
    <pattern id="grid" width="32" height="32" patternUnits="userSpaceOnUse">
      <rect width="32" height="32" fill="#2bb8d8"/>
      <path d="M0 0H32M0 0V32" stroke="#ffffff" stroke-opacity="0.45" stroke-width="2"/>
    </pattern>
    <!-- comic halftone wash, the print-dot texture from game.css -->
    <pattern id="halftone" width="7" height="7" patternUnits="userSpaceOnUse">
      <circle cx="1.6" cy="1.6" r="1.15" fill="#1b1b1b" opacity="0.09"/>
    </pattern>
    <!-- the REG stamp — the 2018 spine mark, reused as the gate seal -->
    <g id="regstamp">
      <rect x="-15" y="-13" width="30" height="26" rx="6" fill="#e8e52a"
            stroke="#1b1b1b" stroke-width="3"/>
      <text x="0" y="6" text-anchor="middle" font-weight="800" font-size="13"
            letter-spacing="-1" fill="#4a0873">REG</text>
    </g>
  </defs>

  <!-- ===================== CYAN PLAY FIELD ===================== -->
  <rect x="0" y="0" width="960" height="560" fill="url(#grid)"/>
  <rect x="0" y="0" width="960" height="560" fill="url(#halftone)"/>
  <!-- hand-drawn marker title swipe, top band (the painting's "PRODUCT'S VALUE") -->
  <g transform="translate(40,40)">
    <rect x="-6" y="-22" width="430" height="34" fill="#e8e52a" stroke="#1b1b1b"
          stroke-width="3" transform="skewX(-10)"/>
    <text x="8" y="3" font-weight="800" font-size="26" fill="#4a0873"
          letter-spacing="-0.5">YOUR PRODUCT'S VALUE</text>
  </g>
  <text x="920" y="44" text-anchor="end" font-weight="700" font-size="13"
        fill="#FAFAF5" opacity="0.92">climb $100k → $9B before the money runs out</text>

  <!-- ===================== THE TRACK (connective road behind tiles) ===================== -->
  <!-- a raised cyan road with a white dashed centerline threads the snake so the -->
  <!-- climb visibly bends row to row. Drawn BEHIND every tile.  Path follows the   -->
  <!-- computed centers; U-turns are rounded.                                       -->
  <path d="M 884 478
           H 156
           Q 96 478 96 418 V 358
           Q 96 298 156 298 H 804
           Q 864 298 864 238 V 178
           Q 864 118 804 118 H 156
           Q 96 118 96 78"
        fill="none" stroke="#1b1b1b" stroke-width="22" stroke-linecap="round" stroke-linejoin="round"/>
  <path d="M 884 478
           H 156
           Q 96 478 96 418 V 358
           Q 96 298 156 298 H 804
           Q 864 298 864 238 V 178
           Q 864 118 804 118 H 156
           Q 96 118 96 78"
        fill="none" stroke="#3fc6e2" stroke-width="14" stroke-linecap="round" stroke-linejoin="round"/>
  <path d="M 884 478
           H 156
           Q 96 478 96 418 V 358
           Q 96 298 156 298 H 804
           Q 864 298 864 238 V 178
           Q 864 118 804 118 H 156
           Q 96 118 96 78"
        fill="none" stroke="#ffffff" stroke-width="3" stroke-dasharray="9 11" opacity="0.6"/>

  <!-- ===================================================================== -->
  <!-- TILES.  Layout = boustrophedon, 4 rows x 6 cols = 24 nodes.            -->
  <!-- Row 3 (bottom, y=478) runs RIGHT->LEFT (start $100k bottom-right).     -->
  <!-- Row 2 (y=298) runs LEFT->RIGHT.  Row 1 (y=178) RIGHT->LEFT.            -->
  <!-- Row 0 (top, y=78) LEFT->RIGHT to the $9B EXIT top-left? NO — see spec: -->
  <!-- top row runs L->R and the EXIT sits at top index 23. For the sample we  -->
  <!-- show the painting's reading: $9B EXIT top-LEFT (node 23 = top-left).    -->
  <!-- Tile body = 116 x 96, rx=6.  Center pitch col=128, row=180.            -->
  <!-- ===================================================================== -->

  <!-- ========== ROW 3 (bottom): nodes 0..5, RIGHT to LEFT ========== -->
  <!-- node 0 — START / $100k garage (green GO) cx=884 cy=478 -->
  <g transform="translate(884,478)">
    <rect x="-52" y="-42" width="104" height="84" rx="6" fill="#1b1b1b" transform="translate(6,7)"/>
    <rect x="-52" y="-42" width="104" height="84" rx="6" fill="#5bb545" stroke="#1b1b1b" stroke-width="4"/>
    <rect x="-52" y="-42" width="104" height="84" rx="6" fill="url(#halftone)"/>
    <text x="0" y="-18" text-anchor="middle" font-weight="800" font-size="13" fill="#1b1b1b" letter-spacing="1">START</text>
    <text x="0" y="14" text-anchor="middle" font-weight="800" font-size="26" fill="#1b1b1b">$100k</text>
    <text x="0" y="33" text-anchor="middle" font-weight="700" font-size="10" fill="#1b1b1b" opacity="0.75">the garage</text>
    <text x="-44" y="-28" font-weight="700" font-size="10" fill="#1b1b1b" opacity="0.7">0</text>
  </g>
  <!-- node 1 — VALUE (cyan-white) cx=756 cy=478 -->
  <g transform="translate(756,478)">
    <rect x="-52" y="-42" width="104" height="84" rx="6" fill="#1b1b1b" transform="translate(6,7)"/>
    <rect x="-52" y="-42" width="104" height="84" rx="6" fill="#FAFAF5" stroke="#1b1b1b" stroke-width="4"/>
    <rect x="-52" y="-42" width="104" height="84" rx="6" fill="url(#halftone)"/>
    <rect x="-52" y="-42" width="104" height="22" rx="6" fill="#2bb8d8" opacity="0.85"/>
    <path d="M-52 -20 H52" stroke="#1b1b1b" stroke-width="2"/>
    <text x="0" y="-25" text-anchor="middle" font-weight="800" font-size="11" fill="#FAFAF5" letter-spacing="0.5">VALUE</text>
    <text x="0" y="10" text-anchor="middle" font-weight="800" font-size="22" fill="#4a0873">$700k</text>
    <text x="-44" y="-26" font-weight="700" font-size="10" fill="#FAFAF5" opacity="0.85">1</text>
  </g>
  <!-- node 2 — FUNDING (green + drop chip) cx=628 cy=478 -->
  <g transform="translate(628,478)">
    <rect x="-52" y="-42" width="104" height="84" rx="6" fill="#1b1b1b" transform="translate(6,7)"/>
    <rect x="-52" y="-42" width="104" height="84" rx="6" fill="#c7e3b1" stroke="#1b1b1b" stroke-width="4"/>
    <rect x="-52" y="-42" width="104" height="84" rx="6" fill="url(#halftone)"/>
    <g transform="translate(33,-30) rotate(-8)">
      <rect x="-14" y="-10" width="28" height="20" rx="4" fill="#5bb545" stroke="#1b1b1b" stroke-width="2.5"/>
      <text x="0" y="6" text-anchor="middle" font-weight="800" font-size="13" fill="#1b1b1b">+$</text>
    </g>
    <text x="-6" y="-20" text-anchor="middle" font-weight="800" font-size="11" fill="#2f8a1c">GRANT</text>
    <text x="0" y="6" text-anchor="middle" font-weight="800" font-size="16" fill="#2f8a1c">You got</text>
    <text x="0" y="24" text-anchor="middle" font-weight="800" font-size="16" fill="#2f8a1c">funding!</text>
    <text x="-44" y="-28" font-weight="700" font-size="10" fill="#1b1b1b" opacity="0.7">2</text>
  </g>
  <!-- node 3 — DECK (draw +1 staff & REG card) purple cx=500 cy=478 -->
  <g transform="translate(500,478)">
    <rect x="-52" y="-42" width="104" height="84" rx="6" fill="#1b1b1b" transform="translate(6,7)"/>
    <rect x="-52" y="-42" width="104" height="84" rx="6" fill="#FAFAF5" stroke="#1b1b1b" stroke-width="4"/>
    <rect x="-52" y="-42" width="104" height="84" rx="6" fill="url(#halftone)"/>
    <!-- mini stacked-card glyph -->
    <g transform="translate(0,-14)">
      <rect x="-20" y="-12" width="34" height="26" rx="3" fill="#e8e52a" stroke="#1b1b1b" stroke-width="2.5" transform="rotate(-8)"/>
      <rect x="-14" y="-12" width="34" height="26" rx="3" fill="#2bb8d8" stroke="#1b1b1b" stroke-width="2.5" transform="rotate(6)"/>
    </g>
    <text x="0" y="20" text-anchor="middle" font-weight="800" font-size="11" fill="#4a0873">DRAW +1 STAFF</text>
    <text x="0" y="34" text-anchor="middle" font-weight="700" font-size="10" fill="#4a0873" opacity="0.8">&amp; a REG card</text>
    <text x="-44" y="-28" font-weight="700" font-size="10" fill="#1b1b1b" opacity="0.7">3</text>
  </g>
  <!-- node 4 — HAZARD (red + skull) "Out of money!" landmark cx=372 cy=478 -->
  <g transform="translate(372,478)">
    <rect x="-52" y="-42" width="104" height="84" rx="6" fill="#1b1b1b" transform="translate(6,7)"/>
    <rect x="-52" y="-42" width="104" height="84" rx="6" fill="#ffb3a0" stroke="#1b1b1b" stroke-width="4"/>
    <rect x="-52" y="-42" width="104" height="84" rx="6" fill="url(#halftone)"/>
    <g transform="translate(33,-29) rotate(7)">
      <rect x="-13" y="-11" width="26" height="22" rx="4" fill="#ff3b3b" stroke="#1b1b1b" stroke-width="2.5"/>
      <text x="0" y="6" text-anchor="middle" font-size="13">💀</text>
    </g>
    <text x="-6" y="-18" text-anchor="middle" font-weight="800" font-size="12" fill="#b3261a">HAZARD</text>
    <text x="0" y="6" text-anchor="middle" font-weight="800" font-size="15" fill="#b3261a">You are out</text>
    <text x="0" y="24" text-anchor="middle" font-weight="800" font-size="15" fill="#b3261a">of money!</text>
    <text x="-44" y="-28" font-weight="700" font-size="10" fill="#1b1b1b" opacity="0.7">4</text>
  </g>
  <!-- node 5 — VALUE cx=244 cy=478 -->
  <g transform="translate(244,478)">
    <rect x="-52" y="-42" width="104" height="84" rx="6" fill="#1b1b1b" transform="translate(6,7)"/>
    <rect x="-52" y="-42" width="104" height="84" rx="6" fill="#FAFAF5" stroke="#1b1b1b" stroke-width="4"/>
    <rect x="-52" y="-42" width="104" height="84" rx="6" fill="url(#halftone)"/>
    <rect x="-52" y="-42" width="104" height="22" rx="6" fill="#2bb8d8" opacity="0.85"/>
    <path d="M-52 -20 H52" stroke="#1b1b1b" stroke-width="2"/>
    <text x="0" y="-25" text-anchor="middle" font-weight="800" font-size="11" fill="#FAFAF5" letter-spacing="0.5">VALUE</text>
    <text x="0" y="10" text-anchor="middle" font-weight="800" font-size="22" fill="#4a0873">$5M</text>
    <text x="-44" y="-26" font-weight="700" font-size="10" fill="#FAFAF5" opacity="0.85">5</text>
  </g>

  <!-- ========== U-TURN: node 6 = GATE (Pre-IND / Concept) GOLD, bottom-left to row 2 ========== -->
  <!-- node 6 — MILESTONE GATE cx=96 cy=388 (sits on the bend, taller) -->
  <g transform="translate(96,388)">
    <rect x="-54" y="-54" width="108" height="108" rx="6" fill="#1b1b1b" transform="translate(6,7)"/>
    <rect x="-54" y="-54" width="108" height="108" rx="6" fill="#e8e52a" stroke="#1b1b1b" stroke-width="4"/>
    <rect x="-54" y="-54" width="108" height="108" rx="6" fill="url(#halftone)"/>
    <!-- purple authority ribbon = the regulator is watching -->
    <path d="M-54 -48 a6 6 0 0 1 6 -6 H48 a6 6 0 0 1 6 6 V-28 H-54 Z" fill="#4a0873"/>
    <path d="M-54 -28 H54" stroke="#1b1b1b" stroke-width="3"/>
    <text x="0" y="-37" text-anchor="middle" font-weight="800" font-size="12" fill="#FAFAF5" letter-spacing="0.6">⛓ GATE</text>
    <text x="0" y="-6" text-anchor="middle" font-weight="800" font-size="16" fill="#4a0873">Pre-IND</text>
    <!-- readiness lock -->
    <g transform="translate(0,14)">
      <rect x="-34" y="-8" width="68" height="16" rx="3" fill="#fff" stroke="#1b1b1b" stroke-width="3"/>
      <rect x="-34" y="-8" width="40" height="16" rx="3" fill="#5bb545" stroke="#1b1b1b" stroke-width="3"/>
    </g>
    <text x="0" y="40" text-anchor="middle" font-weight="800" font-size="11" fill="#4a0873">NEED 12 DATA</text>
    <use href="#regstamp" x="34" y="40"/>
    <text x="-46" y="-38" font-weight="700" font-size="10" fill="#FAFAF5" opacity="0.85">6</text>
  </g>

  <!-- ========== ROW 2 (y=298): nodes 7..12, LEFT to RIGHT ========== -->
  <!-- node 7 — VALUE cx=224 -->
  <g transform="translate(224,298)">
    <rect x="-52" y="-42" width="104" height="84" rx="6" fill="#1b1b1b" transform="translate(6,7)"/>
    <rect x="-52" y="-42" width="104" height="84" rx="6" fill="#FAFAF5" stroke="#1b1b1b" stroke-width="4"/>
    <rect x="-52" y="-42" width="104" height="84" rx="6" fill="url(#halftone)"/>
    <rect x="-52" y="-42" width="104" height="22" rx="6" fill="#2bb8d8" opacity="0.85"/>
    <path d="M-52 -20 H52" stroke="#1b1b1b" stroke-width="2"/>
    <text x="0" y="-25" text-anchor="middle" font-weight="800" font-size="11" fill="#FAFAF5" letter-spacing="0.5">VALUE</text>
    <text x="0" y="10" text-anchor="middle" font-weight="800" font-size="22" fill="#4a0873">$25M</text>
    <text x="-44" y="-26" font-weight="700" font-size="10" fill="#FAFAF5" opacity="0.85">7</text>
  </g>
  <!-- node 8 — FORK (purple split-arrow) "Hire a CRO?" cx=352 -->
  <g transform="translate(352,298)">
    <rect x="-52" y="-42" width="104" height="84" rx="6" fill="#1b1b1b" transform="translate(6,7)"/>
    <rect x="-52" y="-42" width="104" height="84" rx="6" fill="#d9c2ef" stroke="#1b1b1b" stroke-width="4"/>
    <rect x="-52" y="-42" width="104" height="84" rx="6" fill="url(#halftone)"/>
    <!-- split-arrow badge -->
    <g transform="translate(33,-29)" stroke="#1b1b1b" stroke-width="2.5" fill="none">
      <path d="M-10 8 V0 M-10 0 L-2 -7 M-10 0 L-2 7" stroke-linecap="round" stroke-linejoin="round"/>
    </g>
    <text x="-6" y="-20" text-anchor="middle" font-weight="800" font-size="11" fill="#4a0873">FORK</text>
    <text x="0" y="4" text-anchor="middle" font-weight="800" font-size="18" fill="#4a0873">Hire the</text>
    <text x="0" y="24" text-anchor="middle" font-weight="800" font-size="18" fill="#4a0873">CRO?</text>
    <text x="-44" y="-28" font-weight="700" font-size="10" fill="#1b1b1b" opacity="0.7">8</text>
  </g>
  <!-- node 9 — VALUE cx=480 -->
  <g transform="translate(480,298)">
    <rect x="-52" y="-42" width="104" height="84" rx="6" fill="#1b1b1b" transform="translate(6,7)"/>
    <rect x="-52" y="-42" width="104" height="84" rx="6" fill="#FAFAF5" stroke="#1b1b1b" stroke-width="4"/>
    <rect x="-52" y="-42" width="104" height="84" rx="6" fill="url(#halftone)"/>
    <rect x="-52" y="-42" width="104" height="22" rx="6" fill="#2bb8d8" opacity="0.85"/>
    <path d="M-52 -20 H52" stroke="#1b1b1b" stroke-width="2"/>
    <text x="0" y="-25" text-anchor="middle" font-weight="800" font-size="11" fill="#FAFAF5" letter-spacing="0.5">VALUE</text>
    <text x="0" y="10" text-anchor="middle" font-weight="800" font-size="22" fill="#4a0873">$90M</text>
    <text x="-44" y="-26" font-weight="700" font-size="10" fill="#FAFAF5" opacity="0.85">9</text>
  </g>
  <!-- node 10 — GATE (Phase 1 / Pre-Sub) GOLD cx=608 (taller) -->
  <g transform="translate(608,298)">
    <rect x="-54" y="-54" width="108" height="108" rx="6" fill="#1b1b1b" transform="translate(6,7)"/>
    <rect x="-54" y="-54" width="108" height="108" rx="6" fill="#e8e52a" stroke="#1b1b1b" stroke-width="4"/>
    <rect x="-54" y="-54" width="108" height="108" rx="6" fill="url(#halftone)"/>
    <path d="M-54 -48 a6 6 0 0 1 6 -6 H48 a6 6 0 0 1 6 6 V-28 H-54 Z" fill="#4a0873"/>
    <path d="M-54 -28 H54" stroke="#1b1b1b" stroke-width="3"/>
    <text x="0" y="-37" text-anchor="middle" font-weight="800" font-size="12" fill="#FAFAF5" letter-spacing="0.6">⛓ GATE</text>
    <text x="0" y="-6" text-anchor="middle" font-weight="800" font-size="16" fill="#4a0873">Phase 1</text>
    <g transform="translate(0,14)">
      <rect x="-34" y="-8" width="68" height="16" rx="3" fill="#fff" stroke="#1b1b1b" stroke-width="3"/>
      <rect x="-34" y="-8" width="54" height="16" rx="3" fill="#5bb545" stroke="#1b1b1b" stroke-width="3"/>
    </g>
    <text x="0" y="40" text-anchor="middle" font-weight="800" font-size="11" fill="#4a0873">NEED 16 DATA</text>
    <use href="#regstamp" x="34" y="40"/>
    <text x="-46" y="-38" font-weight="700" font-size="10" fill="#FAFAF5" opacity="0.85">10</text>
  </g>
  <!-- node 11 — FUNDING (corporate venture) green cx=736 -->
  <g transform="translate(736,298)">
    <rect x="-52" y="-42" width="104" height="84" rx="6" fill="#1b1b1b" transform="translate(6,7)"/>
    <rect x="-52" y="-42" width="104" height="84" rx="6" fill="#c7e3b1" stroke="#1b1b1b" stroke-width="4"/>
    <rect x="-52" y="-42" width="104" height="84" rx="6" fill="url(#halftone)"/>
    <g transform="translate(33,-30) rotate(-8)">
      <rect x="-14" y="-10" width="28" height="20" rx="4" fill="#5bb545" stroke="#1b1b1b" stroke-width="2.5"/>
      <text x="0" y="6" text-anchor="middle" font-weight="800" font-size="13" fill="#1b1b1b">+$</text>
    </g>
    <text x="-6" y="-20" text-anchor="middle" font-weight="800" font-size="11" fill="#2f8a1c">FUNDING</text>
    <text x="0" y="4" text-anchor="middle" font-weight="800" font-size="14" fill="#2f8a1c">Corp venture</text>
    <text x="0" y="22" text-anchor="middle" font-weight="800" font-size="14" fill="#2f8a1c">funds!</text>
    <text x="-44" y="-28" font-weight="700" font-size="10" fill="#1b1b1b" opacity="0.7">11</text>
  </g>
  <!-- node 12 — VALUE cx=864 -->
  <g transform="translate(864,298)">
    <rect x="-52" y="-42" width="104" height="84" rx="6" fill="#1b1b1b" transform="translate(6,7)"/>
    <rect x="-52" y="-42" width="104" height="84" rx="6" fill="#FAFAF5" stroke="#1b1b1b" stroke-width="4"/>
    <rect x="-52" y="-42" width="104" height="84" rx="6" fill="url(#halftone)"/>
    <rect x="-52" y="-42" width="104" height="22" rx="6" fill="#2bb8d8" opacity="0.85"/>
    <path d="M-52 -20 H52" stroke="#1b1b1b" stroke-width="2"/>
    <text x="0" y="-25" text-anchor="middle" font-weight="800" font-size="11" fill="#FAFAF5" letter-spacing="0.5">VALUE</text>
    <text x="0" y="10" text-anchor="middle" font-weight="800" font-size="22" fill="#4a0873">$300M</text>
    <text x="-44" y="-26" font-weight="700" font-size="10" fill="#FAFAF5" opacity="0.85">12</text>
  </g>

  <!-- ========== U-TURN node 13 = GATE (Phase 2 / Bench) right bend up to row 1 ========== -->
  <!-- node 13 — GATE cx=864 cy=208 -->
  <g transform="translate(864,208)">
    <rect x="-54" y="-54" width="108" height="108" rx="6" fill="#1b1b1b" transform="translate(6,7)"/>
    <rect x="-54" y="-54" width="108" height="108" rx="6" fill="#e8e52a" stroke="#1b1b1b" stroke-width="4"/>
    <rect x="-54" y="-54" width="108" height="108" rx="6" fill="url(#halftone)"/>
    <path d="M-54 -48 a6 6 0 0 1 6 -6 H48 a6 6 0 0 1 6 6 V-28 H-54 Z" fill="#4a0873"/>
    <path d="M-54 -28 H54" stroke="#1b1b1b" stroke-width="3"/>
    <text x="0" y="-37" text-anchor="middle" font-weight="800" font-size="12" fill="#FAFAF5" letter-spacing="0.6">⛓ GATE</text>
    <text x="0" y="-6" text-anchor="middle" font-weight="800" font-size="16" fill="#4a0873">Phase 2</text>
    <g transform="translate(0,14)">
      <rect x="-34" y="-8" width="68" height="16" rx="3" fill="#fff" stroke="#1b1b1b" stroke-width="3"/>
      <rect x="-34" y="-8" width="48" height="16" rx="3" fill="#5bb545" stroke="#1b1b1b" stroke-width="3"/>
    </g>
    <text x="0" y="40" text-anchor="middle" font-weight="800" font-size="11" fill="#4a0873">NEED 22 DATA</text>
    <use href="#regstamp" x="34" y="40"/>
    <text x="-46" y="-38" font-weight="700" font-size="10" fill="#FAFAF5" opacity="0.85">13</text>
  </g>

  <!-- ========== ROW 1 (y=178): nodes 14..19, RIGHT to LEFT ========== -->
  <!-- node 14 — VALUE cx=736 -->
  <g transform="translate(736,178)">
    <rect x="-52" y="-42" width="104" height="84" rx="6" fill="#1b1b1b" transform="translate(6,7)"/>
    <rect x="-52" y="-42" width="104" height="84" rx="6" fill="#FAFAF5" stroke="#1b1b1b" stroke-width="4"/>
    <rect x="-52" y="-42" width="104" height="84" rx="6" fill="url(#halftone)"/>
    <rect x="-52" y="-42" width="104" height="22" rx="6" fill="#2bb8d8" opacity="0.85"/>
    <path d="M-52 -20 H52" stroke="#1b1b1b" stroke-width="2"/>
    <text x="0" y="-25" text-anchor="middle" font-weight="800" font-size="11" fill="#FAFAF5" letter-spacing="0.5">VALUE</text>
    <text x="0" y="10" text-anchor="middle" font-weight="800" font-size="22" fill="#4a0873">$900M</text>
    <text x="-44" y="-26" font-weight="700" font-size="10" fill="#FAFAF5" opacity="0.85">14</text>
  </g>
  <!-- node 15 — FORK (Fire the CEO?) purple cx=608 -->
  <g transform="translate(608,178)">
    <rect x="-52" y="-42" width="104" height="84" rx="6" fill="#1b1b1b" transform="translate(6,7)"/>
    <rect x="-52" y="-42" width="104" height="84" rx="6" fill="#d9c2ef" stroke="#1b1b1b" stroke-width="4"/>
    <rect x="-52" y="-42" width="104" height="84" rx="6" fill="url(#halftone)"/>
    <g transform="translate(33,-29)" stroke="#1b1b1b" stroke-width="2.5" fill="none">
      <path d="M-10 8 V0 M-10 0 L-2 -7 M-10 0 L-2 7" stroke-linecap="round" stroke-linejoin="round"/>
    </g>
    <text x="-6" y="-20" text-anchor="middle" font-weight="800" font-size="11" fill="#4a0873">FORK</text>
    <text x="0" y="4" text-anchor="middle" font-weight="800" font-size="18" fill="#4a0873">Fire the</text>
    <text x="0" y="24" text-anchor="middle" font-weight="800" font-size="18" fill="#4a0873">CEO?</text>
    <text x="-44" y="-28" font-weight="700" font-size="10" fill="#1b1b1b" opacity="0.7">15</text>
  </g>
  <!-- node 16 — VALUE cx=480 -->
  <g transform="translate(480,178)">
    <rect x="-52" y="-42" width="104" height="84" rx="6" fill="#1b1b1b" transform="translate(6,7)"/>
    <rect x="-52" y="-42" width="104" height="84" rx="6" fill="#FAFAF5" stroke="#1b1b1b" stroke-width="4"/>
    <rect x="-52" y="-42" width="104" height="84" rx="6" fill="url(#halftone)"/>
    <rect x="-52" y="-42" width="104" height="22" rx="6" fill="#2bb8d8" opacity="0.85"/>
    <path d="M-52 -20 H52" stroke="#1b1b1b" stroke-width="2"/>
    <text x="0" y="-25" text-anchor="middle" font-weight="800" font-size="11" fill="#FAFAF5" letter-spacing="0.5">VALUE</text>
    <text x="0" y="10" text-anchor="middle" font-weight="800" font-size="22" fill="#4a0873">$2.5B</text>
    <text x="-44" y="-26" font-weight="700" font-size="10" fill="#FAFAF5" opacity="0.85">16</text>
  </g>
  <!-- node 17 — GATE (Phase 3 / Pivotal) GOLD cx=352 -->
  <g transform="translate(352,178)">
    <rect x="-54" y="-54" width="108" height="108" rx="6" fill="#1b1b1b" transform="translate(6,7)"/>
    <rect x="-54" y="-54" width="108" height="108" rx="6" fill="#e8e52a" stroke="#1b1b1b" stroke-width="4"/>
    <rect x="-54" y="-54" width="108" height="108" rx="6" fill="url(#halftone)"/>
    <path d="M-54 -48 a6 6 0 0 1 6 -6 H48 a6 6 0 0 1 6 6 V-28 H-54 Z" fill="#4a0873"/>
    <path d="M-54 -28 H54" stroke="#1b1b1b" stroke-width="3"/>
    <text x="0" y="-37" text-anchor="middle" font-weight="800" font-size="12" fill="#FAFAF5" letter-spacing="0.6">⛓ GATE</text>
    <text x="0" y="-6" text-anchor="middle" font-weight="800" font-size="16" fill="#4a0873">Phase 3</text>
    <g transform="translate(0,14)">
      <rect x="-34" y="-8" width="68" height="16" rx="3" fill="#fff" stroke="#1b1b1b" stroke-width="3"/>
      <rect x="-34" y="-8" width="58" height="16" rx="3" fill="#5bb545" stroke="#1b1b1b" stroke-width="3"/>
    </g>
    <text x="0" y="40" text-anchor="middle" font-weight="800" font-size="11" fill="#4a0873">NEED 28 DATA</text>
    <use href="#regstamp" x="34" y="40"/>
    <text x="-46" y="-38" font-weight="700" font-size="10" fill="#FAFAF5" opacity="0.85">17</text>
  </g>
  <!-- node 18 — FORK (Get acquired? SELL / No thanks) purple cx=224 -->
  <g transform="translate(224,178)">
    <rect x="-52" y="-42" width="104" height="84" rx="6" fill="#1b1b1b" transform="translate(6,7)"/>
    <rect x="-52" y="-42" width="104" height="84" rx="6" fill="#d9c2ef" stroke="#1b1b1b" stroke-width="4"/>
    <rect x="-52" y="-42" width="104" height="84" rx="6" fill="url(#halftone)"/>
    <g transform="translate(33,-29) rotate(0)">
      <text x="0" y="6" text-anchor="middle" font-size="15">🤝</text>
    </g>
    <text x="-6" y="-20" text-anchor="middle" font-weight="800" font-size="11" fill="#4a0873">FORK</text>
    <text x="0" y="2" text-anchor="middle" font-weight="800" font-size="15" fill="#4a0873">Get</text>
    <text x="0" y="20" text-anchor="middle" font-weight="800" font-size="15" fill="#4a0873">acquired?</text>
    <text x="-44" y="-28" font-weight="700" font-size="10" fill="#1b1b1b" opacity="0.7">18</text>
  </g>
  <!-- node 19 — VALUE cx=96 -->
  <g transform="translate(96,178)">
    <rect x="-52" y="-42" width="104" height="84" rx="6" fill="#1b1b1b" transform="translate(6,7)"/>
    <rect x="-52" y="-42" width="104" height="84" rx="6" fill="#FAFAF5" stroke="#1b1b1b" stroke-width="4"/>
    <rect x="-52" y="-42" width="104" height="84" rx="6" fill="url(#halftone)"/>
    <rect x="-52" y="-42" width="104" height="22" rx="6" fill="#2bb8d8" opacity="0.85"/>
    <path d="M-52 -20 H52" stroke="#1b1b1b" stroke-width="2"/>
    <text x="0" y="-25" text-anchor="middle" font-weight="800" font-size="11" fill="#FAFAF5" letter-spacing="0.5">VALUE</text>
    <text x="0" y="10" text-anchor="middle" font-weight="800" font-size="22" fill="#4a0873">$5B</text>
    <text x="-44" y="-26" font-weight="700" font-size="10" fill="#FAFAF5" opacity="0.85">19</text>
  </g>

  <!-- ========== U-TURN node 20 = DECK (Boot-strap it!) left bend up to top row ========== -->
  <!-- node 20 — DECK/EVENT cx=96 cy=88 (top-left corner of the snake) -->
  <g transform="translate(96,88)">
    <rect x="-52" y="-40" width="104" height="80" rx="6" fill="#1b1b1b" transform="translate(6,7)"/>
    <rect x="-52" y="-40" width="104" height="80" rx="6" fill="#FAFAF5" stroke="#1b1b1b" stroke-width="4"/>
    <rect x="-52" y="-40" width="104" height="80" rx="6" fill="url(#halftone)"/>
    <text x="0" y="-16" text-anchor="middle" font-size="18">🥾</text>
    <text x="0" y="8" text-anchor="middle" font-weight="800" font-size="15" fill="#4a0873">Boot-strap</text>
    <text x="0" y="26" text-anchor="middle" font-weight="800" font-size="15" fill="#4a0873">it!</text>
    <text x="-44" y="-26" font-weight="700" font-size="10" fill="#1b1b1b" opacity="0.7">20</text>
  </g>

  <!-- ========== ROW 0 (top, y=78): nodes 21..23, LEFT to RIGHT? No: EXIT is top-left. -->
  <!--            So top row reads node 21 -> 22 -> 23(EXIT) traveling LEFT, ending top-left. -->
  <!--            Layout-wise we place 21 at cx=224, 22 at cx=160 cluster... For the sample, -->
  <!--            top row goes node 20(left) then SHORT hop right to value then the EXIT is the -->
  <!--            highest-value corner. We show: 21 VALUE (cx=224), 22 GATE NDA (cx=352), 23 EXIT. -->

  <!-- node 21 — VALUE cx=224 cy=78 -->
  <g transform="translate(224,78)">
    <rect x="-52" y="-40" width="104" height="80" rx="6" fill="#1b1b1b" transform="translate(6,7)"/>
    <rect x="-52" y="-40" width="104" height="80" rx="6" fill="#FAFAF5" stroke="#1b1b1b" stroke-width="4"/>
    <rect x="-52" y="-40" width="104" height="80" rx="6" fill="url(#halftone)"/>
    <rect x="-52" y="-40" width="104" height="20" rx="6" fill="#2bb8d8" opacity="0.85"/>
    <path d="M-52 -20 H52" stroke="#1b1b1b" stroke-width="2"/>
    <text x="0" y="-25" text-anchor="middle" font-weight="800" font-size="10" fill="#FAFAF5" letter-spacing="0.5">VALUE</text>
    <text x="0" y="14" text-anchor="middle" font-weight="800" font-size="22" fill="#4a0873">$6B</text>
    <text x="-44" y="-26" font-weight="700" font-size="10" fill="#FAFAF5" opacity="0.85">21</text>
  </g>
  <!-- node 22 — FINAL GATE (NDA/BLA submission → face Dr. Vance) cx=480 cy=78, red authority -->
  <g transform="translate(480,78)">
    <rect x="-58" y="-46" width="116" height="92" rx="6" fill="#1b1b1b" transform="translate(6,7)"/>
    <rect x="-58" y="-46" width="116" height="92" rx="6" fill="#e8e52a" stroke="#1b1b1b" stroke-width="4"/>
    <rect x="-58" y="-46" width="116" height="92" rx="6" fill="url(#halftone)"/>
    <path d="M-58 -40 a6 6 0 0 1 6 -6 H52 a6 6 0 0 1 6 6 V-22 H-58 Z" fill="#b3261a"/>
    <path d="M-58 -22 H58" stroke="#1b1b1b" stroke-width="3"/>
    <text x="0" y="-31" text-anchor="middle" font-weight="800" font-size="11" fill="#FAFAF5" letter-spacing="0.4">★ FINAL GATE</text>
    <text x="0" y="2" text-anchor="middle" font-weight="800" font-size="16" fill="#4a0873">NDA / BLA</text>
    <text x="0" y="22" text-anchor="middle" font-weight="800" font-size="11" fill="#b3261a">FACE DR. VANCE</text>
    <use href="#regstamp" x="40" y="30"/>
    <text x="-50" y="-30" font-weight="700" font-size="10" fill="#FAFAF5" opacity="0.85">22</text>
  </g>
  <!-- node 23 — EXIT / $9B glass tower (gold trophy) cx=736 cy=78 — top, the apex -->
  <g transform="translate(736,78)">
    <rect x="-58" y="-46" width="116" height="92" rx="6" fill="#1b1b1b" transform="translate(6,7)"/>
    <rect x="-58" y="-46" width="116" height="92" rx="6" fill="#e8e52a" stroke="#1b1b1b" stroke-width="4"/>
    <rect x="-58" y="-46" width="116" height="92" rx="6" fill="url(#halftone)"/>
    <text x="0" y="-22" text-anchor="middle" font-size="20">🏆</text>
    <text x="0" y="4" text-anchor="middle" font-weight="800" font-size="14" fill="#4a0873">EXIT</text>
    <text x="0" y="28" text-anchor="middle" font-weight="800" font-size="28" fill="#b3261a">$9B</text>
    <text x="-50" y="-30" font-weight="700" font-size="10" fill="#1b1b1b" opacity="0.7">23</text>
  </g>

  <!-- ===================================================================== -->
  <!-- AVATARS — die-cut discs riding the waypoint polyline.                  -->
  <!-- CAT (you) = green collar chip, ABOVE tile.  DOG (rival) = orange chip,  -->
  <!-- BELOW tile, mirrored.  Both cast a SOLID 3px offset shadow.            -->
  <!-- Shown here: cat on node 3, dog chasing on node 1.                      -->
  <!-- ===================================================================== -->
  <!-- DOG (rival) on node 1 (cx=756) — rides below the tile, mirrored -->
  <g transform="translate(756,532)">
    <circle cx="4" cy="5" r="22" fill="#1b1b1b"/>
    <circle cx="0" cy="0" r="22" fill="#FAFAF5" stroke="#1b1b1b" stroke-width="3"/>
    <g transform="scale(-1,1)" filter="grayscale(0.2)">
      <text x="0" y="8" text-anchor="middle" font-size="24">🐕</text>
    </g>
    <rect x="-20" y="14" width="40" height="13" rx="4" fill="#f5841f" stroke="#1b1b1b" stroke-width="2.5"/>
    <text x="0" y="24" text-anchor="middle" font-weight="800" font-size="9" fill="#1b1b1b">RIVAL</text>
  </g>
  <!-- CAT (you) on node 3 (cx=500) — rides above the tile -->
  <g transform="translate(500,422)">
    <circle cx="4" cy="5" r="24" fill="#1b1b1b"/>
    <circle cx="0" cy="0" r="24" fill="#FAFAF5" stroke="#1b1b1b" stroke-width="3"/>
    <text x="0" y="9" text-anchor="middle" font-size="26">🐈</text>
    <rect x="-20" y="16" width="40" height="13" rx="4" fill="#5bb545" stroke="#1b1b1b" stroke-width="2.5"/>
    <text x="0" y="26" text-anchor="middle" font-weight="800" font-size="9" fill="#1b1b1b">YOU</text>
  </g>

  <!-- ===================================================================== -->
  <!-- SPINNER widget — a die-cut cyan wheel (1-4) with a hard-shadow needle.  -->
  <!-- Lives in the HUD; shown here parked center for the visual target.       -->
  <!-- ===================================================================== -->
  <g transform="translate(480,388)">
    <circle cx="6" cy="7" r="56" fill="#1b1b1b"/>
    <circle cx="0" cy="0" r="56" fill="#FAFAF5" stroke="#1b1b1b" stroke-width="4"/>
    <!-- four pie quadrants, color-by-meaning -->
    <path d="M0 0 L0 -56 A56 56 0 0 1 56 0 Z" fill="#2bb8d8"/>
    <path d="M0 0 L56 0 A56 56 0 0 1 0 56 Z" fill="#e8e52a"/>
    <path d="M0 0 L0 56 A56 56 0 0 1 -56 0 Z" fill="#5bb545"/>
    <path d="M0 0 L-56 0 A56 56 0 0 1 0 -56 Z" fill="#f5841f"/>
    <circle cx="0" cy="0" r="56" fill="none" stroke="#1b1b1b" stroke-width="4"/>
    <path d="M0 -56 V56 M-56 0 H56" stroke="#1b1b1b" stroke-width="2.5"/>
    <text x="28" y="-24" text-anchor="middle" font-weight="800" font-size="22" fill="#1b1b1b">1</text>
    <text x="28" y="34" text-anchor="middle" font-weight="800" font-size="22" fill="#1b1b1b">2</text>
    <text x="-28" y="34" text-anchor="middle" font-weight="800" font-size="22" fill="#1b1b1b">3</text>
    <text x="-28" y="-24" text-anchor="middle" font-weight="800" font-size="22" fill="#FAFAF5">4</text>
    <!-- hard-shadow needle pointing to 4 -->
    <g transform="rotate(-45)">
      <path d="M3 6 L-3 6 L0 -50 Z" fill="#1b1b1b" transform="translate(3,4)"/>
      <path d="M3 6 L-3 6 L0 -50 Z" fill="#b3261a" stroke="#1b1b1b" stroke-width="2.5"/>
    </g>
    <circle cx="0" cy="0" r="9" fill="#FAFAF5" stroke="#1b1b1b" stroke-width="3"/>
    <text x="0" y="92" text-anchor="middle" font-weight="800" font-size="13" fill="#1b1b1b">SPIN TO CLIMB</text>
  </g>
</svg>
