<?xml version="1.0" encoding="UTF-8"?>
<svg id="Layer_1" xmlns="http://www.w3.org/2000/svg" version="1.1" xmlns:xlink="http://www.w3.org/1999/xlink" viewBox="0 0 121.91 48.72">
  <!-- Generator: Adobe Illustrator 29.8.5, SVG Export Plug-In . SVG Version: 2.1.1 Build 2)  -->
  <defs>
    <style>
      .st0 {
        fill: #f6a42b;
      }

      .st1 {
        fill: #fed117;
      }

      .st2 {
        fill: #ee703d;
      }

      .st3 {
        fill: #f07f3e;
      }

      .st4 {
        fill: #fdc60b;
      }

      .st5 {
        fill: #ed663c;
      }

      .st6 {
        fill: #f7a728;
      }

      .st7 {
        fill: #ed673c;
      }

      .st8 {
        fill: #f39539;
      }

      .st9 {
        fill: #e94a3a;
      }

      .st10 {
        fill: #6abc45;
      }

      .st11 {
        fill: #f7a827;
      }

      .st12 {
        fill: #ec603b;
      }

      .st13 {
        fill: #f3943a;
      }

      .st14 {
        fill: #f7a926;
      }

      .st15 {
        fill: #fdcb11;
      }

      .st16 {
        fill: #ec5f3b;
      }

      .st17 {
        fill: #fee229;
      }

      .st18 {
        fill: #fab918;
      }

      .st19 {
        fill: #e9463a;
      }

      .st20 {
        fill: #fab51b;
      }

      .st21 {
        fill: #fdc80d;
      }

      .st22 {
        fill: #e83f39;
      }

      .st23 {
        fill: #f59f30;
      }

      .st24 {
        fill: #eb553b;
      }

      .st25 {
        fill: #fcc011;
      }

      .st26 {
        fill: #f8ae22;
      }

      .st27 {
        fill: #ffe930;
      }

      .st28 {
        fill: #fedf25;
      }

      .st29 {
        fill: #ea4e3a;
      }

      .st30 {
        fill: #fbbb16;
      }

      .st31 {
        fill: #f6a12e;
      }

      .st32 {
        fill: #f1883e;
      }

      .st33 {
        fill: #fed51b;
      }

      .st34 {
        fill: #fbbe13;
      }

      .st35 {
        fill: #e9483a;
      }

      .st36 {
        fill: #ffee36;
      }

      .st37 {
        fill: #f49b33;
      }

      .st38 {
        fill: #f28c3f;
      }

      .st39 {
        fill: #feda21;
      }

      .st40 {
        fill: #f49a34;
      }

      .st41 {
        fill: #f6a52a;
      }

      .st42 {
        fill: #fed218;
      }

      .st43 {
        fill: #ef7b3d;
      }

      .st44 {
        fill: #ed693c;
      }

      .st45 {
        fill: #fedc22;
      }

      .st46 {
        fill: #ee743d;
      }

      .st47 {
        fill: #ec643c;
      }

      .st48 {
        fill: #ffea32;
      }

      .st49 {
        fill: #f3933b;
      }

      .st50 {
        fill: #f1873e;
      }

      .st51 {
        fill: #e84139;
      }

      .st52 {
        fill: #ec5d3b;
      }

      .st53 {
        fill: #ea4f3a;
      }

      .st54 {
        fill: #fdc50c;
      }

      .st55 {
        fill: #fdc70d;
      }

      .st56 {
        fill: #ed6c3c;
      }

      .st57 {
        fill: #eb593b;
      }

      .st58 {
        fill: #f6a22d;
      }

      .st59 {
        fill: #fff038;
      }

      .st60 {
        fill: #f18a3f;
      }

      .st61 {
        fill: #fed81e;
      }

      .st62 {
        fill: #f9b41c;
      }

      .st63 {
        fill: #f8ad23;
      }

      .st64 {
        fill: none;
      }

      .st65 {
        fill: #e9473a;
      }

      .st66 {
        fill: #f49737;
      }

      .st67 {
        fill: #f1843e;
      }

      .st68 {
        fill: #f18b3f;
      }

      .st69 {
        fill: #ea4b3a;
      }

      .st70 {
        fill: #eb563b;
      }

      .st71 {
        fill: #fdc90e;
      }

      .st72 {
        fill: #e9453a;
      }

      .st73 {
        fill: #ea503a;
      }

      .st74 {
        fill: #f8af21;
      }

      .st75 {
        fill: #eb573b;
      }

      .st76 {
        fill: #e9493a;
      }

      .st77 {
        fill: #f0803e;
      }

      .st78 {
        fill: #ffec34;
      }

      .st79 {
        fill: #ec623c;
      }

      .st80 {
        fill: #ef763d;
      }

      .st81 {
        fill: #e83e39;
      }

      .st82 {
        fill: #f39638;
      }

      .st83 {
        fill: #eb543b;
      }

      .st84 {
        fill: #ee723d;
      }

      .st85 {
        fill: #fdd016;
      }

      .st86 {
        fill: #ed6a3c;
      }

      .st87 {
        fill: #ee6f3c;
      }

      .st88 {
        fill: #f2903e;
      }

      .st89 {
        fill: #fdcf15;
      }

      .st90 {
        fill: #f0823e;
      }

      .st91 {
        fill: #fab61a;
      }

      .st92 {
        fill: #f28d3f;
      }

      .st93 {
        fill: #fcc30e;
      }

      .st94 {
        fill: #e84039;
      }

      .st95 {
        fill: #f1853e;
      }

      .st96 {
        fill: #f9b020;
      }

      .st97 {
        fill: #f8ab25;
      }

      .st98 {
        fill: #fee52c;
      }

      .st99 {
        fill: #fff23a;
      }

      .st100 {
        fill: #e94439;
      }

      .st101 {
        fill: #fbbd14;
      }

      .st102 {
        fill: #f28e3f;
      }

      .st103 {
        fill: #fab719;
      }

      .st104 {
        fill: #ea4d3a;
      }

      .st105 {
        fill: #e84239;
      }

      .st106 {
        fill: #fdc40d;
      }

      .st107 {
        fill: #f2913d;
      }

      .st108 {
        fill: #ef753d;
      }

      .st109 {
        fill: #fcc20f;
      }

      .st110 {
        fill: #f1893f;
      }

      .st111 {
        fill: #fee32a;
      }

      .st112 {
        fill: #eb5c3b;
      }

      .st113 {
        fill: #fed41a;
      }

      .st114 {
        fill: #ef7a3d;
      }

      .st115 {
        fill: #ee6e3c;
      }

      .st116 {
        fill: #fed71d;
      }

      .st117 {
        fill: #fdce14;
      }

      .st118 {
        fill: #e94339;
      }

      .st119 {
        fill: #fee72e;
      }

      .st120 {
        fill: #ec633c;
      }

      .st121 {
        fill: #f3923c;
      }

      .st122 {
        fill: #f59d32;
      }

      .st123 {
        fill: #eb583b;
      }

      .st124 {
        fill: #ea513a;
      }

      .st125 {
        fill: #462d7b;
      }

      .st126 {
        fill: #ef773d;
      }

      .st127 {
        fill: #f1863e;
      }

      .st128 {
        fill: #fdc70c;
      }

      .st129 {
        fill: #fee027;
      }

      .st130 {
        fill: #ef783d;
      }

      .st131 {
        fill: #fab818;
      }

      .st132 {
        fill: #fdcd12;
      }

      .st133 {
        fill: #fdcb10;
      }

      .st134 {
        fill: #f6a32c;
      }

      .st135 {
        fill: #fed319;
      }

      .st136 {
        fill: #f49836;
      }

      .st137 {
        fill: #f49935;
      }

      .st138 {
        fill: #ec5e3b;
      }

      .st139 {
        fill: #fcc110;
      }

      .st140 {
        fill: #fdcc11;
      }

      .st141 {
        fill: #f59e31;
      }

      .st142 {
        fill: #f07d3e;
      }

      .st143 {
        fill: #fbbc15;
      }

      .st144 {
        fill: #ed6b3c;
      }

      .st145 {
        fill: #f28f3f;
      }

      .st146 {
        fill: #f07e3e;
      }

      .st147 {
        fill: #ec613b;
      }

      .st148 {
        fill: #ea4c3a;
      }

      .st149 {
        fill: #eb5b3b;
      }

      .st150 {
        fill: #eb5a3b;
      }

      .st151 {
        fill: #ea523a;
      }

      .st152 {
        fill: #f9b11f;
      }

      .st153 {
        fill: #ed683c;
      }

      .st154 {
        fill: #ed653c;
      }

      .st155 {
        fill: #ee713d;
      }

      .st156 {
        fill: #f7a629;
      }

      .st157 {
        fill: #f9b31d;
      }

      .st158 {
        fill: #f59c32;
      }

      .st159 {
        fill: #fedd24;
      }

      .st160 {
        fill: #f8ac24;
      }

      .st161 {
        fill: #f5a02f;
      }

      .st162 {
        fill: #fed91f;
      }

      .st163 {
        fill: #f9b21e;
      }

      .st164 {
        fill: #fdca0f;
      }

      .st165 {
        fill: #ee6d3c;
      }

      .st166 {
        fill: #fcbf12;
      }

      .st167 {
        fill: #ee733d;
      }

      .st168 {
        clip-path: url(#clippath);
      }

      .st169 {
        fill: #f0833e;
      }

      .st170 {
        fill: #ef793d;
      }

      .st171 {
        fill: #f0813e;
      }

      .st172 {
        fill: #fdce13;
      }

      .st173 {
        fill: #fbba17;
      }
    </style>
    <clipPath id="clippath">
      <path class="st64" d="M98.53,27.22s-.3-.31.29-1.87c.59-1.55,1.71-2.02,1.98-2.98.27-.96.23-2.54.23-2.54,0,0,.59,1.29.64,2.41.05,1.13-.47,2.91-1.5,4.23-.61.79-1.65.76-1.65.76ZM113.2,36.38c-.06.1-.12.2-.19.3.29.04.74.16,1.34.54,1.05.66,1.29,1.39,1.29,1.39,0,0-.88-1.09-2.19-1.39-.26-.06-.51-.09-.73-.09,0,0-1.18,1.59-2.22,2.37s-2.31,1.47-3.99,1.47-2.43-.26-4.72-2.29-3.05-4.7-2.71-6.37c.13-.66.41-1.62.88-2.51.79-1.29,1.83-2.83,2.56-3.88.33-.55.63-1.1.87-1.61,1.15-2.45-1.88-5.53-1.88-5.53,0,0,4.15,2.09,4.57,4.42.42,2.33-.24,3.54-.6,5.08-.36,1.55.85,2.85,1.58,2.97,1.51.26,2.51-1.13,2.59-1.83.21-1.77.77-2.75,1.63-3.56.86-.8,2.17-.73,2.17-.73,0,0-.93.93-.77,2.76.08.89.76,2.31,1.56,3.16.6.63.74,1.8-.2,3.8.38,0,.84.04,1.38.09,2.1.19,3.3,1.47,3.3,1.47,0,0-1.85-1.12-4.45-.94-.23.02-.42.04-.58.05-.02.04-.05.08-.07.13.64.07,1.52.23,2.24.62,1.29.7,1.59,1.35,1.59,1.35,0,0-.98-.82-2.6-1.14-.75-.15-1.5-.11-1.65-.1ZM105.76,35.49s-.58-1.26-1.45-1.96c-.05-.04-.11-.08-.18-.12-.04.77-.39,1.25-.39,1.25,0,0-.13-.19-.24-.52-.1-.31-.12-.7-.08-.98-.97-.22-2.17-.08-2.17-.08,0,0,.56,1.92,2.08,2.36,1.54.44,2.42.06,2.42.06ZM112.26,32.87s-.75-.08-1.54,0c-.06,1.15-.42,1.63-.42,1.63,0,0-.05-.01-.28-.57-.12-.31-.15-.61-.11-.93-.27.08-.51.18-.7.33-.86.7-1.45,1.96-1.45,1.96,0,0,.89.4,2.41-.01,1.53-.41,2.09-2.41,2.09-2.41Z"/>
    </clipPath>
  </defs>
  <path class="st10" d="M64.49,48.28s-.03,0-.05,0c-.29-.03-.51-.26-.52-.55l-.91-32.91-1.6,26.54c-.02.27-.22.49-.49.53-.27.05-.53-.12-.62-.37l-1.85-5.12h-6.68c-2.05,0-2.85-.91-3.56-1.71-.2-.22-.38-.43-.59-.62-.91-.81-1.76-1.58-3.72-1.15-.9.2-1.85.94-2.77,1.66-1.14.89-2.32,1.82-3.56,1.82H2.75c-.32,0-.57-.26-.57-.57s.26-.57.57-.57h34.81c.85,0,1.82-.76,2.86-1.57,1.02-.8,2.07-1.63,3.22-1.88,2.54-.56,3.75.53,4.73,1.41.26.23.47.48.68.72.65.74,1.17,1.33,2.7,1.33h7.08c.24,0,.45.15.54.38l1.05,2.9L62.65,1.81c.02-.3.27-.54.57-.54h0c.31,0,.55.25.56.55l1.14,40.9,1.43-7c.05-.27.29-.46.56-.46h9.57c.94,0,2.23-1.36,3.48-2.67,1.59-1.67,3.24-3.4,5-3.4s2.99,1.64,4.22,3.22c1.09,1.4,2.21,2.85,3.45,2.85h10.87c.32,0,.57.26.57.57s-.26.57-.57.57h-10.87c-1.8,0-3.1-1.67-4.35-3.29-1.06-1.36-2.15-2.78-3.32-2.78-1.27,0-2.82,1.62-4.18,3.05-1.48,1.55-2.88,3.02-4.31,3.02h-9.1l-2.33,11.42c-.05.27-.29.46-.56.46Z"/>
  <g>
    <path class="st125" d="M23.35,12.77c0,.23-.01.43-.03.6-.02.17-.05.3-.09.4s-.09.18-.15.22c-.06.05-.13.07-.2.07h-3.92v12.62c0,.08-.03.15-.08.22s-.14.12-.26.16c-.12.04-.28.07-.49.1-.21.02-.46.04-.77.04s-.56-.01-.77-.04c-.21-.02-.37-.06-.49-.1-.12-.04-.21-.09-.26-.16s-.08-.14-.08-.22v-12.62h-3.92c-.08,0-.15-.02-.21-.07-.06-.05-.1-.12-.14-.22-.04-.1-.07-.23-.09-.4-.02-.17-.03-.36-.03-.6s.01-.45.03-.62c.02-.17.05-.3.09-.41.04-.1.09-.17.14-.22.06-.04.12-.07.21-.07h11.03c.07,0,.14.02.2.07.06.04.11.12.15.22.04.1.07.24.09.41.02.17.03.38.03.62Z"/>
    <path class="st125" d="M30.69,16.92c0,.29,0,.53-.02.71s-.04.33-.07.44c-.03.1-.07.18-.13.22-.05.04-.12.06-.2.06-.06,0-.14-.01-.22-.04-.08-.03-.17-.06-.27-.09-.1-.03-.21-.06-.33-.09s-.25-.04-.4-.04c-.17,0-.34.03-.51.1s-.34.18-.53.32c-.18.15-.37.34-.57.58-.2.24-.41.54-.63.9v6.73c0,.08-.02.15-.07.21-.05.06-.13.11-.25.15-.12.04-.27.07-.47.09-.19.02-.44.03-.74.03s-.54-.01-.74-.03c-.19-.02-.35-.05-.47-.09-.12-.04-.2-.09-.25-.15-.05-.06-.07-.13-.07-.21v-10.79c0-.08.02-.15.06-.21.04-.06.11-.11.22-.15.1-.04.24-.07.41-.09.17-.02.37-.03.62-.03s.47.01.64.03c.17.02.3.05.39.09.09.04.16.09.2.15.04.06.06.13.06.21v1.34c.28-.4.55-.74.8-1,.25-.26.49-.47.71-.62.23-.15.45-.26.68-.32.23-.06.45-.09.68-.09.1,0,.22,0,.34.02.12.01.25.03.38.06.13.03.24.06.34.1.1.04.17.07.21.11.04.04.08.08.1.13.02.05.04.11.05.2s.03.21.04.38c0,.17.01.4.01.69Z"/>
    <path class="st125" d="M35.84,12.26c0,.61-.12,1.04-.37,1.27-.25.23-.71.35-1.39.35s-1.15-.11-1.39-.34-.36-.63-.36-1.22.12-1.04.37-1.28c.25-.24.71-.36,1.4-.36s1.14.11,1.38.34c.24.23.36.64.36,1.23ZM35.61,26.71c0,.08-.02.15-.07.21-.05.06-.13.11-.25.15-.12.04-.27.07-.47.09-.19.02-.44.03-.74.03s-.54-.01-.74-.03c-.19-.02-.35-.05-.47-.09-.12-.04-.2-.09-.25-.15-.05-.06-.07-.13-.07-.21v-10.77c0-.08.02-.15.07-.21.05-.06.13-.11.25-.16.12-.04.27-.08.47-.1.19-.02.44-.04.74-.04s.54.01.74.04c.19.02.35.06.47.1.12.04.2.1.25.16.05.06.07.13.07.21v10.77Z"/>
    <path class="st125" d="M47.84,26.74c0,.11-.04.2-.12.27-.08.06-.21.11-.38.14s-.43.04-.77.04c-.36,0-.63-.01-.79-.04-.17-.03-.28-.07-.35-.14-.07-.06-.1-.15-.1-.27v-.86c-.44.48-.95.85-1.52,1.11-.57.27-1.2.4-1.89.4-.57,0-1.1-.07-1.58-.22-.48-.15-.9-.37-1.25-.67-.35-.29-.62-.66-.82-1.09s-.29-.94-.29-1.52c0-.63.12-1.18.37-1.64.25-.46.61-.85,1.1-1.15.49-.3,1.09-.53,1.82-.67.73-.15,1.57-.22,2.53-.22h1.05v-.65c0-.34-.03-.63-.1-.89-.07-.25-.18-.47-.34-.63-.16-.17-.37-.29-.63-.38-.26-.08-.59-.12-.97-.12-.51,0-.96.06-1.36.17-.4.11-.75.24-1.06.38-.31.14-.56.26-.77.37-.21.11-.37.17-.5.17-.09,0-.17-.03-.24-.08-.07-.06-.13-.14-.17-.24-.04-.1-.08-.23-.1-.39-.02-.15-.04-.32-.04-.51,0-.25.02-.45.06-.59.04-.14.12-.28.23-.39s.31-.25.59-.39c.28-.14.61-.27.99-.39s.79-.22,1.24-.3c.45-.08.91-.11,1.38-.11.85,0,1.57.08,2.17.25.6.17,1.09.42,1.48.76.39.34.67.78.85,1.33.18.54.27,1.18.27,1.92v7.26ZM44.85,22.12h-1.16c-.49,0-.91.04-1.26.11-.35.07-.63.18-.85.33-.22.15-.38.32-.48.53s-.15.44-.15.71c0,.45.14.81.43,1.06.29.26.68.39,1.19.39.43,0,.82-.11,1.18-.33.36-.22.72-.54,1.09-.96v-1.84Z"/>
    <path class="st125" d="M53.93,26.71c0,.08-.02.15-.07.21-.05.06-.13.11-.25.15-.12.04-.27.07-.47.09-.19.02-.44.03-.74.03s-.54-.01-.74-.03c-.19-.02-.35-.05-.47-.09-.12-.04-.2-.09-.25-.15-.05-.06-.07-.13-.07-.21v-15.91c0-.08.02-.15.07-.22.05-.06.13-.12.25-.16.12-.04.27-.08.47-.1s.44-.04.74-.04.54.01.74.04c.19.02.35.06.47.1.12.04.2.1.25.16.05.06.07.14.07.22v15.91Z"/>
    <path class="st125" d="M79.18,24.75c0,.2,0,.37-.02.51-.01.14-.03.26-.05.36-.02.1-.06.19-.1.26s-.1.16-.19.25c-.09.09-.26.21-.51.36-.25.15-.56.28-.93.42-.37.13-.79.24-1.26.33-.47.09-.98.13-1.53.13-1.07,0-2.04-.17-2.9-.5s-1.6-.82-2.2-1.48c-.6-.66-1.07-1.48-1.39-2.46-.32-.98-.48-2.13-.48-3.44s.18-2.51.53-3.55c.35-1.03.85-1.9,1.49-2.6.64-.7,1.4-1.23,2.29-1.6s1.87-.54,2.95-.54c.44,0,.85.04,1.26.11.4.07.78.17,1.12.28s.65.25.93.41.47.28.57.39c.11.11.18.2.22.27.04.07.07.17.1.28.02.11.04.25.05.4.01.15.02.34.02.57,0,.24,0,.45-.02.62s-.04.31-.08.41c-.04.1-.09.18-.15.23-.06.05-.12.07-.19.07-.12,0-.27-.07-.46-.21-.19-.14-.43-.3-.72-.47-.29-.17-.65-.33-1.05-.47-.41-.14-.89-.21-1.46-.21-.62,0-1.18.13-1.66.38-.49.25-.9.62-1.25,1.09s-.6,1.04-.78,1.71-.27,1.42-.27,2.26c0,.92.09,1.72.28,2.39s.46,1.23.81,1.66.77.76,1.27.97c.5.21,1.05.32,1.68.32.56,0,1.05-.07,1.46-.2s.76-.28,1.06-.44.54-.31.73-.44c.19-.13.34-.19.44-.19.08,0,.15.02.19.05.05.03.09.1.12.19.03.1.06.23.07.41.02.17.02.41.02.7Z"/>
    <path class="st125" d="M90.48,26.74c0,.11-.04.2-.12.27-.08.06-.21.11-.38.14-.17.03-.43.04-.77.04-.36,0-.63-.01-.79-.04s-.28-.07-.35-.14c-.07-.06-.1-.15-.1-.27v-.86c-.44.48-.95.85-1.52,1.11-.57.27-1.2.4-1.89.4-.57,0-1.1-.07-1.58-.22-.48-.15-.89-.37-1.25-.67-.35-.29-.62-.66-.82-1.09-.19-.44-.29-.94-.29-1.52,0-.63.12-1.18.37-1.64.25-.46.61-.85,1.1-1.15.49-.3,1.09-.53,1.82-.67.73-.15,1.57-.22,2.53-.22h1.05v-.65c0-.34-.03-.63-.1-.89-.07-.25-.18-.47-.34-.63s-.37-.29-.63-.38c-.26-.08-.59-.12-.97-.12-.51,0-.96.06-1.36.17-.4.11-.75.24-1.06.38s-.56.26-.77.37c-.21.11-.37.17-.5.17-.09,0-.17-.03-.24-.08-.07-.06-.12-.14-.17-.24-.04-.1-.08-.23-.1-.39s-.04-.32-.04-.51c0-.25.02-.45.06-.59.04-.14.12-.28.23-.39.11-.12.31-.25.59-.39.28-.14.61-.27.99-.39.38-.12.79-.22,1.24-.3.45-.08.91-.11,1.39-.11.85,0,1.57.08,2.17.25.6.17,1.09.42,1.48.76.39.34.67.78.85,1.33.18.54.27,1.18.27,1.92v7.26ZM87.49,22.12h-1.16c-.49,0-.91.04-1.26.11-.35.07-.63.18-.85.33-.22.15-.38.32-.48.53s-.15.44-.15.71c0,.45.14.81.43,1.06.29.26.68.39,1.19.39.43,0,.82-.11,1.18-.33s.72-.54,1.09-.96v-1.84Z"/>
    <path class="st125" d="M99.67,25.64c0,.36-.02.63-.07.82-.04.19-.1.32-.18.4-.07.08-.18.15-.32.21-.14.06-.31.11-.5.16-.19.04-.4.08-.62.1-.22.02-.45.04-.67.04-.6,0-1.13-.08-1.57-.23-.44-.15-.81-.39-1.1-.71-.29-.32-.5-.72-.64-1.2s-.21-1.06-.21-1.72v-5.53h-1.29c-.15,0-.27-.09-.35-.28-.08-.19-.12-.51-.12-.95,0-.23.01-.43.03-.59.02-.16.05-.29.09-.38.04-.09.09-.16.15-.2.06-.04.13-.06.21-.06h1.28v-2.41c0-.08.02-.15.07-.22s.12-.12.24-.16.27-.08.47-.1c.2-.02.44-.03.73-.03s.55.01.74.03c.2.02.35.05.47.1.11.04.19.1.24.16.05.06.07.14.07.22v2.41h2.35c.08,0,.15.02.21.06.06.04.11.11.15.2.04.09.07.22.09.38.02.16.03.36.03.59,0,.44-.04.76-.12.95-.08.19-.2.28-.35.28h-2.36v5.07c0,.59.09,1.03.28,1.33s.52.44.99.44c.16,0,.31-.01.44-.04.13-.03.24-.06.34-.1s.19-.07.25-.1c.07-.03.13-.04.19-.04.05,0,.09.01.14.04.04.03.08.08.1.17.02.08.05.2.07.35.02.14.03.33.03.56Z"/>
  </g>
  <g class="st168">
    <polygon class="st8" points="107.76 35.61 107.9 35.69 107.76 35.69 107.76 35.61"/>
    <polygon class="st13" points="107.76 35.51 108.07 35.69 107.9 35.69 107.76 35.61 107.76 35.51"/>
    <polygon class="st49" points="107.76 35.41 108.24 35.69 108.07 35.69 107.76 35.51 107.76 35.41"/>
    <polygon class="st121" points="107.76 35.31 108.41 35.69 108.24 35.69 107.76 35.41 107.76 35.31"/>
    <polygon class="st107" points="107.76 35.22 108.58 35.69 108.41 35.69 107.76 35.31 107.76 35.22"/>
    <polygon class="st88" points="107.76 35.12 108.75 35.69 108.58 35.69 107.76 35.22 107.76 35.12"/>
    <polygon class="st145" points="107.76 35.02 108.92 35.69 108.75 35.69 107.76 35.12 107.76 35.02"/>
    <polygon class="st145" points="107.76 34.83 109.25 35.69 108.92 35.69 107.76 35.02 107.76 34.83"/>
    <polygon class="st102" points="107.76 34.64 109.57 35.69 109.25 35.69 107.76 34.83 107.76 34.64"/>
    <polygon class="st92" points="107.76 34.45 109.9 35.69 109.57 35.69 107.76 34.64 107.76 34.45"/>
    <polygon class="st38" points="107.76 34.26 110.23 35.69 109.9 35.69 107.76 34.45 107.76 34.26"/>
    <polygon class="st68" points="107.76 34.07 110.56 35.69 110.23 35.69 107.76 34.26 107.76 34.07"/>
    <polygon class="st60" points="107.76 33.88 110.89 35.69 110.56 35.69 107.76 34.07 107.76 33.88"/>
    <polygon class="st110" points="107.76 33.69 111.22 35.69 110.89 35.69 107.76 33.88 107.76 33.69"/>
    <polygon class="st32" points="107.76 33.51 111.54 35.69 111.22 35.69 107.76 33.69 107.76 33.51"/>
    <polygon class="st50" points="107.76 33.32 111.87 35.69 111.54 35.69 107.76 33.51 107.76 33.32"/>
    <polygon class="st127" points="107.76 33.13 112.2 35.69 111.87 35.69 107.76 33.32 107.76 33.13"/>
    <polygon class="st95" points="107.76 32.94 112.26 35.54 112.26 35.69 112.2 35.69 107.76 33.13 107.76 32.94"/>
    <polygon class="st67" points="107.83 32.79 112.26 35.35 112.26 35.54 107.76 32.94 107.76 32.79 107.83 32.79"/>
    <polygon class="st169" points="108.16 32.79 112.26 35.16 112.26 35.35 107.83 32.79 108.16 32.79"/>
    <polygon class="st90" points="108.49 32.79 112.26 34.97 112.26 35.16 108.16 32.79 108.49 32.79"/>
    <polygon class="st171" points="108.82 32.79 112.26 34.78 112.26 34.97 108.49 32.79 108.82 32.79"/>
    <polygon class="st77" points="109.14 32.79 112.26 34.59 112.26 34.78 108.82 32.79 109.14 32.79"/>
    <polygon class="st3" points="109.47 32.79 112.26 34.4 112.26 34.59 109.14 32.79 109.47 32.79"/>
    <polygon class="st146" points="109.8 32.79 112.26 34.21 112.26 34.4 109.47 32.79 109.8 32.79"/>
    <polygon class="st142" points="110.13 32.79 112.26 34.02 112.26 34.21 109.8 32.79 110.13 32.79"/>
    <polygon class="st43" points="110.46 32.79 112.26 33.83 112.26 34.02 110.13 32.79 110.46 32.79"/>
    <polygon class="st114" points="110.79 32.79 112.26 33.64 112.26 33.83 110.46 32.79 110.79 32.79"/>
    <polygon class="st170" points="111.11 32.79 112.26 33.45 112.26 33.64 110.79 32.79 111.11 32.79"/>
    <polygon class="st130" points="111.44 32.79 112.26 33.26 112.26 33.45 111.11 32.79 111.44 32.79"/>
    <polygon class="st126" points="111.77 32.79 112.26 33.07 112.26 33.26 111.44 32.79 111.77 32.79"/>
    <polygon class="st80" points="112.1 32.79 112.26 32.88 112.26 33.07 111.77 32.79 112.1 32.79"/>
    <polygon class="st108" points="112.26 32.88 112.1 32.79 112.26 32.79 112.26 32.88"/>
    <polygon class="st166" points="101.26 35.86 101.27 35.87 101.26 35.87 101.26 35.86"/>
    <polygon class="st34" points="101.26 35.77 101.44 35.87 101.27 35.87 101.26 35.86 101.26 35.77"/>
    <polygon class="st101" points="101.26 35.67 101.61 35.87 101.44 35.87 101.26 35.77 101.26 35.67"/>
    <polygon class="st143" points="101.26 35.57 101.78 35.87 101.61 35.87 101.26 35.67 101.26 35.57"/>
    <polygon class="st30" points="101.26 35.47 101.95 35.87 101.78 35.87 101.26 35.57 101.26 35.47"/>
    <polygon class="st173" points="101.26 35.37 102.11 35.87 101.95 35.87 101.26 35.47 101.26 35.37"/>
    <polygon class="st18" points="101.26 35.28 102.28 35.87 102.11 35.87 101.26 35.37 101.26 35.28"/>
    <polygon class="st131" points="101.26 35.18 102.45 35.87 102.28 35.87 101.26 35.28 101.26 35.18"/>
    <polygon class="st103" points="101.26 35.08 102.62 35.87 102.45 35.87 101.26 35.18 101.26 35.08"/>
    <polygon class="st91" points="101.26 34.98 102.79 35.87 102.62 35.87 101.26 35.08 101.26 34.98"/>
    <polygon class="st20" points="101.26 34.89 102.96 35.87 102.79 35.87 101.26 34.98 101.26 34.89"/>
    <polygon class="st62" points="101.26 34.79 103.13 35.87 102.96 35.87 101.26 34.89 101.26 34.79"/>
    <polygon class="st157" points="101.26 34.69 103.3 35.87 103.13 35.87 101.26 34.79 101.26 34.69"/>
    <polygon class="st163" points="101.26 34.59 103.47 35.87 103.3 35.87 101.26 34.69 101.26 34.59"/>
    <polygon class="st152" points="101.26 34.49 103.64 35.87 103.47 35.87 101.26 34.59 101.26 34.49"/>
    <polygon class="st96" points="101.26 34.4 103.81 35.87 103.64 35.87 101.26 34.49 101.26 34.4"/>
    <polygon class="st74" points="101.26 34.3 103.98 35.87 103.81 35.87 101.26 34.4 101.26 34.3"/>
    <polygon class="st26" points="101.26 34.2 104.15 35.87 103.98 35.87 101.26 34.3 101.26 34.2"/>
    <polygon class="st63" points="101.26 34.1 104.32 35.87 104.15 35.87 101.26 34.2 101.26 34.1"/>
    <polygon class="st160" points="101.26 34.01 104.49 35.87 104.32 35.87 101.26 34.1 101.26 34.01"/>
    <polygon class="st97" points="101.26 33.91 104.66 35.87 104.49 35.87 101.26 34.01 101.26 33.91"/>
    <polygon class="st14" points="101.26 33.81 104.83 35.87 104.66 35.87 101.26 33.91 101.26 33.81"/>
    <polygon class="st11" points="101.26 33.71 104.99 35.87 104.83 35.87 101.26 33.81 101.26 33.71"/>
    <polygon class="st6" points="101.26 33.61 105.16 35.87 104.99 35.87 101.26 33.71 101.26 33.61"/>
    <polygon class="st156" points="101.26 33.52 105.33 35.87 105.16 35.87 101.26 33.61 101.26 33.52"/>
    <polygon class="st41" points="101.26 33.42 105.5 35.87 105.33 35.87 101.26 33.52 101.26 33.42"/>
    <polygon class="st0" points="101.26 33.32 105.67 35.87 105.5 35.87 101.26 33.42 101.26 33.32"/>
    <polygon class="st134" points="101.26 33.22 105.76 35.82 105.76 35.87 105.67 35.87 101.26 33.32 101.26 33.22"/>
    <polygon class="st58" points="101.26 33.12 105.76 35.72 105.76 35.82 101.26 33.22 101.26 33.12"/>
    <polygon class="st31" points="101.26 33.03 105.76 35.63 105.76 35.72 101.26 33.12 101.26 33.03"/>
    <polygon class="st161" points="101.27 32.94 105.76 35.53 105.76 35.63 101.26 33.03 101.26 32.94 101.27 32.94"/>
    <polygon class="st23" points="101.44 32.94 105.76 35.43 105.76 35.53 101.27 32.94 101.44 32.94"/>
    <polygon class="st141" points="101.61 32.94 105.76 35.33 105.76 35.43 101.44 32.94 101.61 32.94"/>
    <polygon class="st122" points="101.78 32.94 105.76 35.23 105.76 35.33 101.61 32.94 101.78 32.94"/>
    <polygon class="st158" points="101.95 32.94 105.76 35.14 105.76 35.23 101.78 32.94 101.95 32.94"/>
    <polygon class="st37" points="102.12 32.94 105.76 35.04 105.76 35.14 101.95 32.94 102.12 32.94"/>
    <polygon class="st40" points="102.29 32.94 105.76 34.94 105.76 35.04 102.12 32.94 102.29 32.94"/>
    <polygon class="st137" points="102.46 32.94 105.76 34.84 105.76 34.94 102.29 32.94 102.46 32.94"/>
    <polygon class="st136" points="102.63 32.94 105.76 34.75 105.76 34.84 102.46 32.94 102.63 32.94"/>
    <polygon class="st66" points="102.8 32.94 105.76 34.65 105.76 34.75 102.63 32.94 102.8 32.94"/>
    <polygon class="st82" points="102.97 32.94 105.76 34.55 105.76 34.65 102.8 32.94 102.97 32.94"/>
    <polygon class="st8" points="103.13 32.94 105.76 34.45 105.76 34.55 102.97 32.94 103.13 32.94"/>
    <polygon class="st13" points="103.3 32.94 105.76 34.35 105.76 34.45 103.13 32.94 103.3 32.94"/>
    <polygon class="st49" points="103.47 32.94 105.76 34.26 105.76 34.35 103.3 32.94 103.47 32.94"/>
    <polygon class="st121" points="103.64 32.94 105.76 34.16 105.76 34.26 103.47 32.94 103.64 32.94"/>
    <polygon class="st107" points="103.81 32.94 105.76 34.06 105.76 34.16 103.64 32.94 103.81 32.94"/>
    <polygon class="st88" points="103.98 32.94 105.76 33.96 105.76 34.06 103.81 32.94 103.98 32.94"/>
    <polygon class="st145" points="104.15 32.94 105.76 33.86 105.76 33.96 103.98 32.94 104.15 32.94"/>
    <polygon class="st145" points="104.48 32.94 105.76 33.68 105.76 33.86 104.15 32.94 104.48 32.94"/>
    <polygon class="st102" points="104.81 32.94 105.76 33.49 105.76 33.68 104.48 32.94 104.81 32.94"/>
    <polygon class="st92" points="105.14 32.94 105.76 33.3 105.76 33.49 104.81 32.94 105.14 32.94"/>
    <polygon class="st38" points="105.46 32.94 105.76 33.11 105.76 33.3 105.14 32.94 105.46 32.94"/>
    <polygon class="st68" points="105.76 33.11 105.46 32.94 105.76 32.94 105.76 33.11"/>
    <polygon class="st99" points="98.74 37.35 105.01 40.97 98.74 40.97 98.74 37.35"/>
    <polygon class="st99" points="98.74 37.3 105.09 40.97 105.01 40.97 98.74 37.35 98.74 37.3"/>
    <polygon class="st59" points="98.74 37.26 105.17 40.97 105.09 40.97 98.74 37.3 98.74 37.26"/>
    <polygon class="st36" points="98.74 37.21 105.25 40.97 105.17 40.97 98.74 37.26 98.74 37.21"/>
    <polygon class="st78" points="98.74 37.17 105.33 40.97 105.25 40.97 98.74 37.21 98.74 37.17"/>
    <polygon class="st48" points="98.74 37.12 105.41 40.97 105.33 40.97 98.74 37.17 98.74 37.12"/>
    <polygon class="st27" points="98.74 37.07 105.49 40.97 105.41 40.97 98.74 37.12 98.74 37.07"/>
    <polygon class="st119" points="98.74 37.03 105.57 40.97 105.49 40.97 98.74 37.07 98.74 37.03"/>
    <polygon class="st98" points="98.74 36.98 105.65 40.97 105.57 40.97 98.74 37.03 98.74 36.98"/>
    <polygon class="st111" points="98.74 36.94 105.73 40.97 105.65 40.97 98.74 36.98 98.74 36.94"/>
    <polygon class="st17" points="98.74 36.89 105.81 40.97 105.73 40.97 98.74 36.94 98.74 36.89"/>
    <polygon class="st129" points="98.74 36.84 105.89 40.97 105.81 40.97 98.74 36.89 98.74 36.84"/>
    <polygon class="st28" points="98.74 36.8 105.97 40.97 105.89 40.97 98.74 36.84 98.74 36.8"/>
    <polygon class="st159" points="98.74 36.75 106.05 40.97 105.97 40.97 98.74 36.8 98.74 36.75"/>
    <polygon class="st45" points="98.74 36.71 106.12 40.97 106.05 40.97 98.74 36.75 98.74 36.71"/>
    <polygon class="st39" points="98.74 36.66 106.2 40.97 106.12 40.97 98.74 36.71 98.74 36.66"/>
    <polygon class="st162" points="98.74 36.62 106.28 40.97 106.2 40.97 98.74 36.66 98.74 36.62"/>
    <polygon class="st61" points="98.74 36.57 106.36 40.97 106.28 40.97 98.74 36.62 98.74 36.57"/>
    <polygon class="st116" points="98.74 36.52 106.44 40.97 106.36 40.97 98.74 36.57 98.74 36.52"/>
    <polygon class="st33" points="98.74 36.48 106.52 40.97 106.44 40.97 98.74 36.52 98.74 36.48"/>
    <polygon class="st113" points="98.74 36.43 106.6 40.97 106.52 40.97 98.74 36.48 98.74 36.43"/>
    <polygon class="st135" points="98.74 36.39 106.68 40.97 106.6 40.97 98.74 36.43 98.74 36.39"/>
    <polygon class="st42" points="98.74 36.34 106.76 40.97 106.68 40.97 98.74 36.39 98.74 36.34"/>
    <polygon class="st1" points="98.74 36.29 106.84 40.97 106.76 40.97 98.74 36.34 98.74 36.29"/>
    <polygon class="st85" points="98.74 36.25 106.92 40.97 106.84 40.97 98.74 36.29 98.74 36.25"/>
    <polygon class="st89" points="98.74 36.2 107 40.97 106.92 40.97 98.74 36.25 98.74 36.2"/>
    <polygon class="st117" points="98.74 36.16 107.08 40.97 107 40.97 98.74 36.2 98.74 36.16"/>
    <polygon class="st172" points="98.74 36.11 107.16 40.97 107.08 40.97 98.74 36.16 98.74 36.11"/>
    <polygon class="st132" points="98.74 36.07 107.24 40.97 107.16 40.97 98.74 36.11 98.74 36.07"/>
    <polygon class="st140" points="98.74 36.02 107.32 40.97 107.24 40.97 98.74 36.07 98.74 36.02"/>
    <polygon class="st15" points="98.74 35.97 107.4 40.97 107.32 40.97 98.74 36.02 98.74 35.97"/>
    <polygon class="st133" points="98.74 35.93 107.47 40.97 107.4 40.97 98.74 35.97 98.74 35.93"/>
    <polygon class="st164" points="98.74 35.88 107.55 40.97 107.47 40.97 98.74 35.93 98.74 35.88"/>
    <polygon class="st164" points="98.74 35.84 107.63 40.97 107.55 40.97 98.74 35.88 98.74 35.84"/>
    <polygon class="st71" points="98.74 35.79 107.71 40.97 107.63 40.97 98.74 35.84 98.74 35.79"/>
    <polygon class="st71" points="98.74 35.74 107.79 40.97 107.71 40.97 98.74 35.79 98.74 35.74"/>
    <polygon class="st21" points="98.74 35.7 107.87 40.97 107.79 40.97 98.74 35.74 98.74 35.7"/>
    <polygon class="st21" points="98.74 35.65 107.95 40.97 107.87 40.97 98.74 35.7 98.74 35.65"/>
    <polygon class="st55" points="98.74 35.61 108.03 40.97 107.95 40.97 98.74 35.65 98.74 35.61"/>
    <polygon class="st128" points="98.74 35.56 108.11 40.97 108.03 40.97 98.74 35.61 98.74 35.56"/>
    <polygon class="st128" points="98.74 35.52 108.19 40.97 108.11 40.97 98.74 35.56 98.74 35.52"/>
    <polygon class="st128" points="98.74 35.47 108.27 40.97 108.19 40.97 98.74 35.52 98.74 35.47"/>
    <polygon class="st4" points="98.74 35.42 108.35 40.97 108.27 40.97 98.74 35.47 98.74 35.42"/>
    <polygon class="st4" points="98.74 35.38 108.43 40.97 108.35 40.97 98.74 35.42 98.74 35.38"/>
    <polygon class="st4" points="98.74 35.33 108.51 40.97 108.43 40.97 98.74 35.38 98.74 35.33"/>
    <polygon class="st4" points="98.74 35.29 108.59 40.97 108.51 40.97 98.74 35.33 98.74 35.29"/>
    <polygon class="st4" points="98.74 35.24 108.67 40.97 108.59 40.97 98.74 35.29 98.74 35.24"/>
    <polygon class="st4" points="98.74 35.19 108.75 40.97 108.67 40.97 98.74 35.24 98.74 35.19"/>
    <polygon class="st4" points="98.74 35.1 108.91 40.97 108.75 40.97 98.74 35.19 98.74 35.1"/>
    <polygon class="st54" points="98.74 35 109.08 40.97 108.91 40.97 98.74 35.1 98.74 35"/>
    <polygon class="st106" points="98.74 34.9 109.25 40.97 109.08 40.97 98.74 35 98.74 34.9"/>
    <polygon class="st93" points="98.74 34.8 109.42 40.97 109.25 40.97 98.74 34.9 98.74 34.8"/>
    <polygon class="st109" points="98.74 34.71 109.59 40.97 109.42 40.97 98.74 34.8 98.74 34.71"/>
    <polygon class="st139" points="98.74 34.61 109.76 40.97 109.59 40.97 98.74 34.71 98.74 34.61"/>
    <polygon class="st25" points="98.74 34.51 109.93 40.97 109.76 40.97 98.74 34.61 98.74 34.51"/>
    <polygon class="st166" points="98.74 34.41 110.1 40.97 109.93 40.97 98.74 34.51 98.74 34.41"/>
    <polygon class="st34" points="98.74 34.31 110.27 40.97 110.1 40.97 98.74 34.41 98.74 34.31"/>
    <polygon class="st101" points="98.74 34.22 110.44 40.97 110.27 40.97 98.74 34.31 98.74 34.22"/>
    <polygon class="st143" points="98.74 34.12 110.61 40.97 110.44 40.97 98.74 34.22 98.74 34.12"/>
    <polygon class="st30" points="98.74 34.02 110.78 40.97 110.61 40.97 98.74 34.12 98.74 34.02"/>
    <polygon class="st173" points="98.74 33.92 110.95 40.97 110.78 40.97 98.74 34.02 98.74 33.92"/>
    <polygon class="st18" points="98.74 33.82 111.12 40.97 110.95 40.97 98.74 33.92 98.74 33.82"/>
    <polygon class="st131" points="98.74 33.73 111.29 40.97 111.12 40.97 98.74 33.82 98.74 33.73"/>
    <polygon class="st103" points="98.74 33.63 111.46 40.97 111.29 40.97 98.74 33.73 98.74 33.63"/>
    <polygon class="st91" points="98.74 33.53 111.63 40.97 111.46 40.97 98.74 33.63 98.74 33.53"/>
    <polygon class="st20" points="98.74 33.43 111.79 40.97 111.63 40.97 98.74 33.53 98.74 33.43"/>
    <polygon class="st62" points="98.74 33.34 111.96 40.97 111.79 40.97 98.74 33.43 98.74 33.34"/>
    <polygon class="st157" points="98.74 33.24 112.13 40.97 111.96 40.97 98.74 33.34 98.74 33.24"/>
    <polygon class="st163" points="98.74 33.14 112.3 40.97 112.13 40.97 98.74 33.24 98.74 33.14"/>
    <polygon class="st152" points="98.74 33.04 112.47 40.97 112.3 40.97 98.74 33.14 98.74 33.04"/>
    <polygon class="st96" points="98.74 32.94 112.64 40.97 112.47 40.97 98.74 33.04 98.74 32.94"/>
    <polygon class="st74" points="98.74 32.85 112.81 40.97 112.64 40.97 98.74 32.94 98.74 32.85"/>
    <polygon class="st26" points="98.74 32.75 112.98 40.97 112.81 40.97 98.74 32.85 98.74 32.75"/>
    <polygon class="st63" points="98.74 32.65 113.15 40.97 112.98 40.97 98.74 32.75 98.74 32.65"/>
    <polygon class="st160" points="98.74 32.55 113.32 40.97 113.15 40.97 98.74 32.65 98.74 32.55"/>
    <polygon class="st97" points="98.74 32.46 113.49 40.97 113.32 40.97 98.74 32.55 98.74 32.46"/>
    <polygon class="st14" points="98.74 32.36 113.66 40.97 113.49 40.97 98.74 32.46 98.74 32.36"/>
    <polygon class="st11" points="98.74 32.26 113.83 40.97 113.66 40.97 98.74 32.36 98.74 32.26"/>
    <polygon class="st6" points="98.74 32.16 114 40.97 113.83 40.97 98.74 32.26 98.74 32.16"/>
    <polygon class="st156" points="98.74 32.06 114.17 40.97 114 40.97 98.74 32.16 98.74 32.06"/>
    <polygon class="st41" points="98.74 31.97 114.34 40.97 114.17 40.97 98.74 32.06 98.74 31.97"/>
    <polygon class="st0" points="98.74 31.87 114.51 40.97 114.34 40.97 98.74 31.97 98.74 31.87"/>
    <polygon class="st134" points="98.74 31.77 114.67 40.97 114.51 40.97 98.74 31.87 98.74 31.77"/>
    <polygon class="st58" points="98.74 31.67 114.84 40.97 114.67 40.97 98.74 31.77 98.74 31.67"/>
    <polygon class="st31" points="98.74 31.58 115.01 40.97 114.84 40.97 98.74 31.67 98.74 31.58"/>
    <polygon class="st161" points="98.74 31.48 115.18 40.97 115.01 40.97 98.74 31.58 98.74 31.48"/>
    <polygon class="st23" points="98.74 31.38 115.35 40.97 115.18 40.97 98.74 31.48 98.74 31.38"/>
    <polygon class="st141" points="98.74 31.28 115.52 40.97 115.35 40.97 98.74 31.38 98.74 31.28"/>
    <polygon class="st122" points="98.74 31.18 115.69 40.97 115.52 40.97 98.74 31.28 98.74 31.18"/>
    <polygon class="st158" points="98.74 31.09 115.86 40.97 115.69 40.97 98.74 31.18 98.74 31.09"/>
    <polygon class="st37" points="98.74 30.99 116.03 40.97 115.86 40.97 98.74 31.09 98.74 30.99"/>
    <polygon class="st40" points="98.74 30.89 116.2 40.97 116.03 40.97 98.74 30.99 98.74 30.89"/>
    <polygon class="st137" points="98.74 30.79 116.37 40.97 116.2 40.97 98.74 30.89 98.74 30.79"/>
    <polygon class="st136" points="98.74 30.69 116.54 40.97 116.37 40.97 98.74 30.79 98.74 30.69"/>
    <polygon class="st66" points="98.74 30.6 116.71 40.97 116.54 40.97 98.74 30.69 98.74 30.6"/>
    <polygon class="st82" points="98.74 30.5 116.88 40.97 116.71 40.97 98.74 30.6 98.74 30.5"/>
    <polygon class="st8" points="98.74 30.4 117.05 40.97 116.88 40.97 98.74 30.5 98.74 30.4"/>
    <polygon class="st13" points="98.74 30.3 117.22 40.97 117.05 40.97 98.74 30.4 98.74 30.3"/>
    <polygon class="st49" points="98.74 30.21 117.39 40.97 117.22 40.97 98.74 30.3 98.74 30.21"/>
    <polygon class="st121" points="98.74 30.11 117.45 40.91 117.42 40.97 117.39 40.97 98.74 30.21 98.74 30.11"/>
    <polygon class="st107" points="98.74 30.01 117.49 40.84 117.45 40.91 98.74 30.11 98.74 30.01"/>
    <polygon class="st88" points="98.74 29.91 117.54 40.76 117.49 40.84 98.74 30.01 98.74 29.91"/>
    <polygon class="st145" points="98.74 29.81 117.58 40.69 117.54 40.76 98.74 29.91 98.74 29.81"/>
    <polygon class="st145" points="98.74 29.62 117.66 40.55 117.58 40.69 98.74 29.81 98.74 29.62"/>
    <polygon class="st102" points="98.74 29.44 117.74 40.41 117.66 40.55 98.74 29.62 98.74 29.44"/>
    <polygon class="st92" points="98.74 29.25 117.82 40.26 117.74 40.41 98.74 29.44 98.74 29.25"/>
    <polygon class="st38" points="98.74 29.06 117.91 40.12 117.82 40.26 98.74 29.25 98.74 29.06"/>
    <polygon class="st68" points="98.74 28.87 117.99 39.98 117.91 40.12 98.74 29.06 98.74 28.87"/>
    <polygon class="st60" points="98.74 28.68 118.07 39.84 117.99 39.98 98.74 28.87 98.74 28.68"/>
    <polygon class="st110" points="98.74 28.49 118.15 39.7 118.07 39.84 98.74 28.68 98.74 28.49"/>
    <polygon class="st32" points="98.74 28.3 118.23 39.55 118.15 39.7 98.74 28.49 98.74 28.3"/>
    <polygon class="st50" points="98.74 28.11 118.32 39.41 118.23 39.55 98.74 28.3 98.74 28.11"/>
    <polygon class="st127" points="98.74 27.92 118.4 39.27 118.32 39.41 98.74 28.11 98.74 27.92"/>
    <polygon class="st95" points="98.74 27.73 118.48 39.13 118.4 39.27 98.74 27.92 98.74 27.73"/>
    <polygon class="st67" points="98.74 27.54 118.56 38.98 118.48 39.13 98.74 27.73 98.74 27.54"/>
    <polygon class="st169" points="98.74 27.35 118.65 38.84 118.56 38.98 98.74 27.54 98.74 27.35"/>
    <polygon class="st90" points="98.74 27.16 118.72 38.7 118.72 38.71 118.65 38.84 98.74 27.35 98.74 27.16"/>
    <polygon class="st171" points="98.74 26.97 118.72 38.51 118.72 38.7 98.74 27.16 98.74 26.97"/>
    <polygon class="st77" points="98.74 26.78 118.72 38.32 118.72 38.51 98.74 26.97 98.74 26.78"/>
    <polygon class="st3" points="98.74 26.59 118.72 38.13 118.72 38.32 98.74 26.78 98.74 26.59"/>
    <polygon class="st146" points="98.74 26.4 118.72 37.94 118.72 38.13 98.74 26.59 98.74 26.4"/>
    <polygon class="st142" points="98.74 26.21 118.72 37.75 118.72 37.94 98.74 26.4 98.74 26.21"/>
    <polygon class="st43" points="98.74 26.02 118.72 37.56 118.72 37.75 98.74 26.21 98.74 26.02"/>
    <polygon class="st114" points="98.74 25.83 118.72 37.37 118.72 37.56 98.74 26.02 98.74 25.83"/>
    <polygon class="st170" points="98.74 25.65 118.72 37.18 118.72 37.37 98.74 25.83 98.74 25.65"/>
    <polygon class="st130" points="98.74 25.46 118.72 36.99 118.72 37.18 98.74 25.65 98.74 25.46"/>
    <polygon class="st126" points="98.74 25.27 118.72 36.8 118.72 36.99 98.74 25.46 98.74 25.27"/>
    <polygon class="st80" points="98.74 25.08 118.72 36.61 118.72 36.8 98.74 25.27 98.74 25.08"/>
    <polygon class="st108" points="98.74 24.89 118.72 36.42 118.72 36.61 98.74 25.08 98.74 24.89"/>
    <polygon class="st46" points="98.74 24.7 118.72 36.23 118.72 36.42 98.74 24.89 98.74 24.7"/>
    <polygon class="st167" points="98.74 24.51 118.72 36.05 118.72 36.23 98.74 24.7 98.74 24.51"/>
    <polygon class="st84" points="98.74 24.32 118.72 35.86 118.72 36.05 98.74 24.51 98.74 24.32"/>
    <polygon class="st155" points="98.74 24.13 118.72 35.67 118.72 35.86 98.74 24.32 98.74 24.13"/>
    <polygon class="st2" points="98.74 23.94 118.72 35.48 118.72 35.67 98.74 24.13 98.74 23.94"/>
    <polygon class="st87" points="98.74 23.75 118.72 35.29 118.72 35.48 98.74 23.94 98.74 23.75"/>
    <polygon class="st115" points="98.74 23.56 118.72 35.1 118.72 35.29 98.74 23.75 98.74 23.56"/>
    <polygon class="st165" points="98.74 23.37 118.72 34.91 118.72 35.1 98.74 23.56 98.74 23.37"/>
    <polygon class="st56" points="98.74 23.18 118.72 34.72 118.72 34.91 98.74 23.37 98.74 23.18"/>
    <polygon class="st144" points="98.74 22.99 118.72 34.53 118.72 34.72 98.74 23.18 98.74 22.99"/>
    <polygon class="st86" points="98.74 22.8 118.72 34.34 118.72 34.53 98.74 22.99 98.74 22.8"/>
    <polygon class="st44" points="98.74 22.61 118.72 34.15 118.72 34.34 98.74 22.8 98.74 22.61"/>
    <polygon class="st44" points="98.74 22.47 118.72 34.01 118.72 34.15 98.74 22.61 98.74 22.47"/>
    <polygon class="st153" points="98.74 22.34 118.72 33.87 118.72 34.01 98.74 22.47 98.74 22.34"/>
    <polygon class="st7" points="98.74 22.2 118.72 33.73 118.72 33.87 98.74 22.34 98.74 22.2"/>
    <polygon class="st5" points="98.74 22.06 118.72 33.6 118.72 33.73 98.74 22.2 98.74 22.06"/>
    <polygon class="st154" points="98.74 21.92 118.72 33.46 118.72 33.6 98.74 22.06 98.74 21.92"/>
    <polygon class="st47" points="98.74 21.78 118.72 33.32 118.72 33.46 98.74 21.92 98.74 21.78"/>
    <polygon class="st120" points="98.74 21.64 118.72 33.18 118.72 33.32 98.74 21.78 98.74 21.64"/>
    <polygon class="st79" points="98.74 21.5 118.72 33.04 118.72 33.18 98.74 21.64 98.74 21.5"/>
    <polygon class="st147" points="98.74 21.37 118.72 32.9 118.72 33.04 98.74 21.5 98.74 21.37"/>
    <polygon class="st12" points="98.74 21.31 98.78 21.25 118.72 32.76 118.72 32.9 98.74 21.37 98.74 21.31"/>
    <polygon class="st16" points="98.78 21.25 98.84 21.14 118.72 32.63 118.72 32.76 98.78 21.25"/>
    <polygon class="st138" points="98.84 21.14 98.9 21.04 118.72 32.49 118.72 32.63 98.84 21.14"/>
    <polygon class="st52" points="98.9 21.04 98.96 20.93 118.72 32.35 118.72 32.49 98.9 21.04"/>
    <polygon class="st112" points="98.96 20.93 99.02 20.83 118.72 32.21 118.72 32.35 98.96 20.93"/>
    <polygon class="st149" points="99.02 20.83 99.08 20.73 118.72 32.07 118.72 32.21 99.02 20.83"/>
    <polygon class="st150" points="99.08 20.73 99.14 20.62 118.72 31.93 118.72 32.07 99.08 20.73"/>
    <polygon class="st57" points="99.14 20.62 99.2 20.52 118.72 31.79 118.72 31.93 99.14 20.62"/>
    <polygon class="st123" points="99.2 20.52 99.26 20.41 118.72 31.65 118.72 31.79 99.2 20.52"/>
    <polygon class="st75" points="99.26 20.41 99.32 20.31 118.72 31.52 118.72 31.65 99.26 20.41"/>
    <polygon class="st70" points="99.32 20.31 99.38 20.21 118.72 31.38 118.72 31.52 99.32 20.31"/>
    <polygon class="st24" points="99.38 20.21 99.44 20.1 118.72 31.24 118.72 31.38 99.38 20.21"/>
    <polygon class="st83" points="99.44 20.1 99.5 20 118.72 31.1 118.72 31.24 99.44 20.1"/>
    <polygon class="st151" points="99.5 20 99.56 19.89 118.72 30.96 118.72 31.1 99.5 20"/>
    <polygon class="st124" points="99.56 19.89 99.62 19.79 118.72 30.82 118.72 30.96 99.56 19.89"/>
    <polygon class="st73" points="99.62 19.79 99.68 19.69 118.72 30.68 118.72 30.82 99.62 19.79"/>
    <polygon class="st53" points="99.68 19.69 99.74 19.58 118.72 30.55 118.72 30.68 99.68 19.69"/>
    <polygon class="st29" points="99.74 19.58 99.8 19.48 118.72 30.41 118.72 30.55 99.74 19.58"/>
    <polygon class="st104" points="99.8 19.48 99.86 19.37 118.72 30.27 118.72 30.41 99.8 19.48"/>
    <polygon class="st148" points="99.86 19.37 99.92 19.27 118.72 30.13 118.72 30.27 99.86 19.37"/>
    <polygon class="st69" points="99.92 19.27 99.98 19.17 118.72 29.99 118.72 30.13 99.92 19.27"/>
    <polygon class="st9" points="99.98 19.17 100.04 19.06 118.72 29.85 118.72 29.99 99.98 19.17"/>
    <polygon class="st76" points="100.04 19.06 100.1 18.96 118.72 29.71 118.72 29.85 100.04 19.06"/>
    <polygon class="st35" points="100.1 18.96 100.16 18.85 118.72 29.57 118.72 29.71 100.1 18.96"/>
    <polygon class="st65" points="100.16 18.85 100.2 18.78 100.27 18.78 118.72 29.44 118.72 29.57 100.16 18.85"/>
    <polygon class="st19" points="100.51 18.78 118.72 29.3 118.72 29.44 100.27 18.78 100.51 18.78"/>
    <polygon class="st72" points="100.75 18.78 118.72 29.16 118.72 29.3 100.51 18.78 100.75 18.78"/>
    <polygon class="st100" points="100.99 18.78 118.72 29.02 118.72 29.16 100.75 18.78 100.99 18.78"/>
    <polygon class="st118" points="101.23 18.78 118.72 28.88 118.72 29.02 100.99 18.78 101.23 18.78"/>
    <polygon class="st105" points="101.47 18.78 118.72 28.74 118.72 28.88 101.23 18.78 101.47 18.78"/>
    <polygon class="st51" points="101.71 18.78 118.72 28.6 118.72 28.74 101.47 18.78 101.71 18.78"/>
    <polygon class="st94" points="101.95 18.78 118.72 28.47 118.72 28.6 101.71 18.78 101.95 18.78"/>
    <polygon class="st22" points="102.19 18.78 118.72 28.33 118.72 28.47 101.95 18.78 102.19 18.78"/>
    <polygon class="st81" points="102.43 18.78 118.72 28.19 118.72 28.33 102.19 18.78 102.43 18.78"/>
    <polygon class="st81" points="118.72 28.19 102.43 18.78 118.72 18.78 118.72 28.19"/>
    <polygon class="st169" points="98.23 27.06 98.56 27.24 98.23 27.24 98.23 27.06"/>
    <polygon class="st90" points="98.23 26.87 98.88 27.24 98.56 27.24 98.23 27.06 98.23 26.87"/>
    <polygon class="st171" points="98.23 26.68 99.21 27.24 98.88 27.24 98.23 26.87 98.23 26.68"/>
    <polygon class="st77" points="98.23 26.49 99.54 27.24 99.21 27.24 98.23 26.68 98.23 26.49"/>
    <polygon class="st3" points="98.23 26.3 99.87 27.24 99.54 27.24 98.23 26.49 98.23 26.3"/>
    <polygon class="st146" points="98.23 26.11 100.2 27.24 99.87 27.24 98.23 26.3 98.23 26.11"/>
    <polygon class="st142" points="98.23 25.92 100.53 27.24 100.2 27.24 98.23 26.11 98.23 25.92"/>
    <polygon class="st43" points="98.23 25.73 100.85 27.24 100.53 27.24 98.23 25.92 98.23 25.73"/>
    <polygon class="st114" points="98.23 25.54 101.18 27.24 100.85 27.24 98.23 25.73 98.23 25.54"/>
    <polygon class="st170" points="98.23 25.35 101.36 27.16 101.31 27.24 101.18 27.24 98.23 25.54 98.23 25.35"/>
    <polygon class="st130" points="98.23 25.16 101.44 27.01 101.36 27.16 98.23 25.35 98.23 25.16"/>
    <polygon class="st126" points="98.23 24.97 101.52 26.87 101.44 27.01 98.23 25.16 98.23 24.97"/>
    <polygon class="st80" points="98.23 24.78 101.6 26.73 101.52 26.87 98.23 24.97 98.23 24.78"/>
    <polygon class="st108" points="98.23 24.59 101.69 26.59 101.6 26.73 98.23 24.78 98.23 24.59"/>
    <polygon class="st46" points="98.23 24.4 101.72 26.42 101.72 26.52 101.69 26.59 98.23 24.59 98.23 24.4"/>
    <polygon class="st167" points="98.23 24.21 101.72 26.23 101.72 26.42 98.23 24.4 98.23 24.21"/>
    <polygon class="st84" points="98.23 24.02 101.72 26.04 101.72 26.23 98.23 24.21 98.23 24.02"/>
    <polygon class="st155" points="98.23 23.83 101.72 25.85 101.72 26.04 98.23 24.02 98.23 23.83"/>
    <polygon class="st2" points="98.23 23.64 101.72 25.66 101.72 25.85 98.23 23.83 98.23 23.64"/>
    <polygon class="st87" points="98.23 23.45 101.72 25.47 101.72 25.66 98.23 23.64 98.23 23.45"/>
    <polygon class="st115" points="98.23 23.27 101.72 25.28 101.72 25.47 98.23 23.45 98.23 23.27"/>
    <polygon class="st165" points="98.23 23.08 101.72 25.09 101.72 25.28 98.23 23.27 98.23 23.08"/>
    <polygon class="st56" points="98.23 22.89 101.72 24.9 101.72 25.09 98.23 23.08 98.23 22.89"/>
    <polygon class="st144" points="98.23 22.7 101.72 24.71 101.72 24.9 98.23 22.89 98.23 22.7"/>
    <polygon class="st86" points="98.23 22.51 101.72 24.53 101.72 24.71 98.23 22.7 98.23 22.51"/>
    <polygon class="st44" points="98.23 22.38 98.26 22.33 101.72 24.34 101.72 24.53 98.23 22.51 98.23 22.38"/>
    <polygon class="st44" points="98.26 22.33 98.32 22.23 101.72 24.2 101.72 24.34 98.26 22.33"/>
    <polygon class="st153" points="98.32 22.23 98.38 22.13 101.72 24.06 101.72 24.2 98.32 22.23"/>
    <polygon class="st7" points="98.38 22.13 98.44 22.02 101.72 23.92 101.72 24.06 98.38 22.13"/>
    <polygon class="st5" points="98.44 22.02 98.5 21.92 101.72 23.78 101.72 23.92 98.44 22.02"/>
    <polygon class="st154" points="98.5 21.92 98.56 21.81 101.72 23.64 101.72 23.78 98.5 21.92"/>
    <polygon class="st47" points="98.56 21.81 98.62 21.71 101.72 23.5 101.72 23.64 98.56 21.81"/>
    <polygon class="st120" points="98.62 21.71 98.68 21.61 101.72 23.37 101.72 23.5 98.62 21.71"/>
    <polygon class="st79" points="98.68 21.61 98.74 21.5 101.72 23.23 101.72 23.37 98.68 21.61"/>
    <polygon class="st147" points="98.74 21.5 98.8 21.4 101.72 23.09 101.72 23.23 98.74 21.5"/>
    <polygon class="st12" points="98.8 21.4 98.86 21.29 101.72 22.95 101.72 23.09 98.8 21.4"/>
    <polygon class="st16" points="98.86 21.29 98.92 21.19 101.72 22.81 101.72 22.95 98.86 21.29"/>
    <polygon class="st138" points="98.92 21.19 98.98 21.09 101.72 22.67 101.72 22.81 98.92 21.19"/>
    <polygon class="st52" points="98.98 21.09 99.04 20.98 101.72 22.53 101.72 22.67 98.98 21.09"/>
    <polygon class="st112" points="99.04 20.98 99.1 20.88 101.72 22.39 101.72 22.53 99.04 20.98"/>
    <polygon class="st149" points="99.1 20.88 99.16 20.77 101.72 22.26 101.72 22.39 99.1 20.88"/>
    <polygon class="st150" points="99.16 20.77 99.22 20.67 101.72 22.12 101.72 22.26 99.16 20.77"/>
    <polygon class="st57" points="99.22 20.67 99.28 20.57 101.72 21.98 101.72 22.12 99.22 20.67"/>
    <polygon class="st123" points="99.28 20.57 99.34 20.46 101.72 21.84 101.72 21.98 99.28 20.57"/>
    <polygon class="st75" points="99.34 20.46 99.4 20.36 101.72 21.7 101.72 21.84 99.34 20.46"/>
    <polygon class="st70" points="99.4 20.36 99.46 20.25 101.72 21.56 101.72 21.7 99.4 20.36"/>
    <polygon class="st24" points="99.46 20.25 99.52 20.15 101.72 21.42 101.72 21.56 99.46 20.25"/>
    <polygon class="st83" points="99.52 20.15 99.58 20.05 101.72 21.29 101.72 21.42 99.52 20.15"/>
    <polygon class="st151" points="99.58 20.05 99.64 19.94 101.72 21.15 101.72 21.29 99.58 20.05"/>
    <polygon class="st124" points="99.64 19.94 99.7 19.84 101.72 21.01 101.72 21.15 99.64 19.94"/>
    <polygon class="st73" points="99.7 19.84 99.71 19.82 99.91 19.82 101.72 20.87 101.72 21.01 99.7 19.84"/>
    <polygon class="st53" points="100.15 19.82 101.72 20.73 101.72 20.87 99.91 19.82 100.15 19.82"/>
    <polygon class="st29" points="100.39 19.82 101.72 20.59 101.72 20.73 100.15 19.82 100.39 19.82"/>
    <polygon class="st104" points="100.63 19.82 101.72 20.45 101.72 20.59 100.39 19.82 100.63 19.82"/>
    <polygon class="st148" points="100.87 19.82 101.72 20.31 101.72 20.45 100.63 19.82 100.87 19.82"/>
    <polygon class="st69" points="101.11 19.82 101.72 20.18 101.72 20.31 100.87 19.82 101.11 19.82"/>
    <polygon class="st9" points="101.35 19.82 101.72 20.04 101.72 20.18 101.11 19.82 101.35 19.82"/>
    <polygon class="st76" points="101.59 19.82 101.72 19.9 101.72 20.04 101.35 19.82 101.59 19.82"/>
    <polygon class="st35" points="101.72 19.9 101.59 19.82 101.72 19.82 101.72 19.9"/>
  </g>
</svg>